<?xml version="1.0" encoding="utf-8"?>
<!-- Generator: Adobe Illustrator 27.5.0, SVG Export Plug-In . SVG Version: 6.00 Build 0)  -->
<svg version="1.1" xmlns="http://www.w3.org/2000/svg" xmlns:xlink="http://www.w3.org/1999/xlink" x="0px" y="0px"
	 viewBox="0 0 500 500" style="enable-background:new 0 0 500 500;" xml:space="preserve">
<g id="BACKGROUND">
	<rect style="fill:#CED6D2;" width="500" height="500"/>
</g>
<g id="OBJECTS">
	<g>
		<g>
			<rect x="363.591" y="153.184" style="fill:#FFFFFF;" width="40.115" height="72.879"/>
			<path style="fill:#71A88E;" d="M403.706,226.063v-19.402c-21.252,14.85-40.115-23.336-40.115-23.336v42.738H403.706z"/>
			<path style="fill:#71A88E;" d="M399.062,161.281c0,2.152-1.744,3.896-3.896,3.896c-2.152,0-3.896-1.744-3.896-3.896
				s1.744-3.896,3.896-3.896C397.317,157.385,399.062,159.129,399.062,161.281z"/>
			<rect x="369.261" y="159.625" style="fill:#CED6D2;" width="19.625" height="2.577"/>
			<rect x="379.073" y="188.335" style="fill:#CED6D2;" width="19.625" height="1.288"/>
			<rect x="379.073" y="191.627" style="fill:#CED6D2;" width="19.625" height="1.289"/>
			<rect x="379.073" y="194.919" style="fill:#CED6D2;" width="19.625" height="1.289"/>
			<rect x="379.073" y="198.212" style="fill:#CED6D2;" width="19.625" height="1.288"/>
			<rect x="366.33" y="219.198" style="fill:#57876F;" width="21.449" height="4.229"/>
		</g>
		<g>
			<rect x="407.115" y="153.184" style="fill:#FFFFFF;" width="40.115" height="72.879"/>
			<path style="fill:#71A88E;" d="M447.23,226.063v-19.402c-21.252,14.85-40.115-23.336-40.115-23.336v42.738H447.23z"/>
			<path style="fill:#71A88E;" d="M442.586,161.281c0,2.152-1.744,3.896-3.896,3.896c-2.152,0-3.896-1.744-3.896-3.896
				s1.744-3.896,3.896-3.896C440.842,157.385,442.586,159.129,442.586,161.281z"/>
			<rect x="412.785" y="159.625" style="fill:#CED6D2;" width="19.625" height="2.577"/>
			<rect x="422.598" y="188.335" style="fill:#CED6D2;" width="19.625" height="1.288"/>
			<rect x="422.598" y="191.627" style="fill:#CED6D2;" width="19.625" height="1.289"/>
			<rect x="422.598" y="194.919" style="fill:#CED6D2;" width="19.625" height="1.289"/>
			<rect x="422.598" y="198.212" style="fill:#CED6D2;" width="19.625" height="1.288"/>
			<rect x="409.854" y="219.198" style="fill:#57876F;" width="21.449" height="4.229"/>
		</g>
		<g>
			<rect x="450.64" y="153.184" style="fill:#FFFFFF;" width="40.115" height="72.879"/>
			<path style="fill:#71A88E;" d="M490.755,226.063v-19.402c-21.252,14.85-40.115-23.336-40.115-23.336v42.738H490.755z"/>
			<circle style="fill:#71A88E;" cx="482.215" cy="161.281" r="3.896"/>
			<rect x="456.31" y="159.625" style="fill:#CED6D2;" width="19.625" height="2.577"/>
			<rect x="466.122" y="188.335" style="fill:#CED6D2;" width="19.625" height="1.288"/>
			<rect x="466.122" y="191.627" style="fill:#CED6D2;" width="19.625" height="1.289"/>
			<rect x="466.122" y="194.919" style="fill:#CED6D2;" width="19.625" height="1.289"/>
			<rect x="466.122" y="198.212" style="fill:#CED6D2;" width="19.625" height="1.288"/>
			<rect x="453.378" y="219.198" style="fill:#57876F;" width="21.449" height="4.229"/>
		</g>
		<g>
			<linearGradient id="SVGID_1_" gradientUnits="userSpaceOnUse" x1="316.8276" y1="204.6939" x2="316.8276" y2="226.0628">
				<stop  offset="0" style="stop-color:#FFFFFF"/>
				<stop  offset="0.5942" style="stop-color:#FDFDFD"/>
				<stop  offset="0.808" style="stop-color:#F6F7F7"/>
				<stop  offset="0.9601" style="stop-color:#EBEBEC"/>
				<stop  offset="1" style="stop-color:#E6E7E8"/>
			</linearGradient>
			<rect x="280" y="204.694" style="fill:url(#SVGID_1_);" width="73.655" height="21.369"/>
			<rect x="343.584" y="204.694" style="fill:#F27668;" width="10.071" height="21.369"/>
			<rect x="338.784" y="204.694" style="fill:#F27668;" width="2.871" height="21.369"/>
			<rect x="281.488" y="207.166" style="fill:#F27668;" width="30.932" height="4"/>
			<rect x="312.42" y="217.033" style="fill:#CED6D2;" width="23.164" height="1.067"/>
			<rect x="312.42" y="219.779" style="fill:#CED6D2;" width="23.164" height="1.067"/>
			<rect x="312.42" y="222.526" style="fill:#CED6D2;" width="23.164" height="1.067"/>
		</g>
		<g>
			
				<linearGradient id="SVGID_00000150087438856664159230000007364086207861723272_" gradientUnits="userSpaceOnUse" x1="316.8276" y1="182.8211" x2="316.8276" y2="204.19">
				<stop  offset="0" style="stop-color:#FFFFFF"/>
				<stop  offset="0.5942" style="stop-color:#FDFDFD"/>
				<stop  offset="0.808" style="stop-color:#F6F7F7"/>
				<stop  offset="0.9601" style="stop-color:#EBEBEC"/>
				<stop  offset="1" style="stop-color:#E6E7E8"/>
			</linearGradient>
			
				<rect x="280" y="182.821" style="fill:url(#SVGID_00000150087438856664159230000007364086207861723272_);" width="73.655" height="21.369"/>
			<rect x="343.584" y="182.821" style="fill:#F27668;" width="10.071" height="21.369"/>
			<rect x="338.784" y="182.821" style="fill:#F27668;" width="2.871" height="21.369"/>
			<rect x="281.488" y="185.294" style="fill:#F27668;" width="30.932" height="4"/>
			<rect x="312.42" y="195.16" style="fill:#CED6D2;" width="23.164" height="1.067"/>
			<rect x="312.42" y="197.907" style="fill:#CED6D2;" width="23.164" height="1.067"/>
			<rect x="312.42" y="200.653" style="fill:#CED6D2;" width="23.164" height="1.067"/>
		</g>
		<g>
			
				<linearGradient id="SVGID_00000033370894241497067260000004620809191630095013_" gradientUnits="userSpaceOnUse" x1="316.8276" y1="160.9483" x2="316.8276" y2="182.3172">
				<stop  offset="0" style="stop-color:#FFFFFF"/>
				<stop  offset="0.5942" style="stop-color:#FDFDFD"/>
				<stop  offset="0.808" style="stop-color:#F6F7F7"/>
				<stop  offset="0.9601" style="stop-color:#EBEBEC"/>
				<stop  offset="1" style="stop-color:#E6E7E8"/>
			</linearGradient>
			
				<rect x="280" y="160.948" style="fill:url(#SVGID_00000033370894241497067260000004620809191630095013_);" width="73.655" height="21.369"/>
			<rect x="343.584" y="160.948" style="fill:#F27668;" width="10.071" height="21.369"/>
			<rect x="338.784" y="160.948" style="fill:#F27668;" width="2.871" height="21.369"/>
			<rect x="281.488" y="163.421" style="fill:#F27668;" width="30.932" height="4"/>
			<rect x="312.42" y="173.287" style="fill:#CED6D2;" width="23.164" height="1.067"/>
			<rect x="312.42" y="176.034" style="fill:#CED6D2;" width="23.164" height="1.067"/>
			<rect x="312.42" y="178.78" style="fill:#CED6D2;" width="23.164" height="1.067"/>
		</g>
		<g>
			
				<linearGradient id="SVGID_00000178190101515282968680000008027844117383977887_" gradientUnits="userSpaceOnUse" x1="316.8276" y1="139.0755" x2="316.8276" y2="160.4444">
				<stop  offset="0" style="stop-color:#FFFFFF"/>
				<stop  offset="0.5942" style="stop-color:#FDFDFD"/>
				<stop  offset="0.808" style="stop-color:#F6F7F7"/>
				<stop  offset="0.9601" style="stop-color:#EBEBEC"/>
				<stop  offset="1" style="stop-color:#E6E7E8"/>
			</linearGradient>
			
				<rect x="280" y="139.076" style="fill:url(#SVGID_00000178190101515282968680000008027844117383977887_);" width="73.655" height="21.369"/>
			<rect x="343.584" y="139.076" style="fill:#F27668;" width="10.071" height="21.369"/>
			<rect x="338.784" y="139.076" style="fill:#F27668;" width="2.871" height="21.369"/>
			<rect x="281.488" y="141.548" style="fill:#F27668;" width="30.932" height="4"/>
			<rect x="312.42" y="151.415" style="fill:#CED6D2;" width="23.164" height="1.067"/>
			<rect x="312.42" y="154.161" style="fill:#CED6D2;" width="23.164" height="1.067"/>
			<rect x="312.42" y="156.907" style="fill:#CED6D2;" width="23.164" height="1.067"/>
		</g>
		<g>
			
				<linearGradient id="SVGID_00000069398440019224457450000010941531891368618421_" gradientUnits="userSpaceOnUse" x1="445.122" y1="336.5229" x2="445.122" y2="357.8917">
				<stop  offset="0" style="stop-color:#FFFFFF"/>
				<stop  offset="0.5942" style="stop-color:#FDFDFD"/>
				<stop  offset="0.808" style="stop-color:#F6F7F7"/>
				<stop  offset="0.9601" style="stop-color:#EBEBEC"/>
				<stop  offset="1" style="stop-color:#E6E7E8"/>
			</linearGradient>
			
				<rect x="408.294" y="336.523" style="fill:url(#SVGID_00000069398440019224457450000010941531891368618421_);" width="73.655" height="21.369"/>
			<rect x="471.879" y="336.523" style="fill:#F27668;" width="10.071" height="21.369"/>
			<rect x="467.079" y="336.523" style="fill:#F27668;" width="2.871" height="21.369"/>
			<rect x="409.782" y="338.995" style="fill:#F27668;" width="30.932" height="4"/>
			<rect x="440.714" y="348.862" style="fill:#CED6D2;" width="23.164" height="1.067"/>
			<rect x="440.714" y="351.608" style="fill:#CED6D2;" width="23.164" height="1.067"/>
			<rect x="440.714" y="354.355" style="fill:#CED6D2;" width="23.164" height="1.067"/>
		</g>
		<g>
			
				<linearGradient id="SVGID_00000135654737434036991330000011986078628057076113_" gradientUnits="userSpaceOnUse" x1="445.122" y1="314.6501" x2="445.122" y2="336.0189">
				<stop  offset="0" style="stop-color:#FFFFFF"/>
				<stop  offset="0.5942" style="stop-color:#FDFDFD"/>
				<stop  offset="0.808" style="stop-color:#F6F7F7"/>
				<stop  offset="0.9601" style="stop-color:#EBEBEC"/>
				<stop  offset="1" style="stop-color:#E6E7E8"/>
			</linearGradient>
			
				<rect x="408.294" y="314.65" style="fill:url(#SVGID_00000135654737434036991330000011986078628057076113_);" width="73.655" height="21.369"/>
			<rect x="471.879" y="314.65" style="fill:#F27668;" width="10.071" height="21.369"/>
			<rect x="467.079" y="314.65" style="fill:#F27668;" width="2.871" height="21.369"/>
			<rect x="409.782" y="317.122" style="fill:#F27668;" width="30.932" height="4"/>
			<rect x="440.714" y="326.989" style="fill:#CED6D2;" width="23.164" height="1.067"/>
			<rect x="440.714" y="329.736" style="fill:#CED6D2;" width="23.164" height="1.067"/>
			<rect x="440.714" y="332.482" style="fill:#CED6D2;" width="23.164" height="1.067"/>
		</g>
		<g>
			
				<rect x="-18.419" y="308.253" transform="matrix(-1.836970e-16 1 -1 -1.836970e-16 339.5745 302.7577)" style="fill:#E6EFEA;" width="73.655" height="25.826"/>
			
				<rect x="13.373" y="340.045" transform="matrix(-1.836970e-16 1 -1 -1.836970e-16 371.3667 334.5498)" style="fill:#EFCF6A;" width="10.071" height="25.826"/>
			
				<rect x="16.973" y="331.645" transform="matrix(-1.836970e-16 1 -1 -1.836970e-16 362.9666 326.1497)" style="fill:#EFCF6A;" width="2.871" height="25.826"/>
			
				<rect x="10.45" y="298.875" transform="matrix(-1.836970e-16 1 -1 -1.836970e-16 327.2086 275.3763)" style="fill:#EFCF6A;" width="30.932" height="4.834"/>
			
				<rect x="4.182" y="327.696" transform="matrix(-1.836970e-16 1 -1 -1.836970e-16 344.1046 312.5765)" style="fill:#CED6D2;" width="23.164" height="1.289"/>
			
				<rect x="0.863" y="327.696" transform="matrix(-1.836970e-16 1 -1 -1.836970e-16 340.7853 315.8958)" style="fill:#CED6D2;" width="23.164" height="1.289"/>
			
				<rect x="-2.457" y="327.696" transform="matrix(-1.836970e-16 1 -1 -1.836970e-16 337.4662 319.2149)" style="fill:#CED6D2;" width="23.164" height="1.289"/>
		</g>
		<g>
			
				<rect x="10.016" y="308.253" transform="matrix(-1.836970e-16 1 -1 -1.836970e-16 368.0096 274.3226)" style="fill:#E6EFEA;" width="73.655" height="25.826"/>
			
				<rect x="41.808" y="340.045" transform="matrix(-1.836970e-16 1 -1 -1.836970e-16 399.8018 306.1147)" style="fill:#EFCF6A;" width="10.071" height="25.826"/>
			
				<rect x="45.408" y="331.645" transform="matrix(-1.836970e-16 1 -1 -1.836970e-16 391.4016 297.7147)" style="fill:#EFCF6A;" width="2.871" height="25.826"/>
			
				<rect x="38.885" y="298.875" transform="matrix(-1.836970e-16 1 -1 -1.836970e-16 355.6437 246.9411)" style="fill:#EFCF6A;" width="30.932" height="4.834"/>
			
				<rect x="32.617" y="327.696" transform="matrix(-1.836970e-16 1 -1 -1.836970e-16 372.5396 284.1414)" style="fill:#CED6D2;" width="23.164" height="1.289"/>
			
				<rect x="29.298" y="327.696" transform="matrix(-1.836970e-16 1 -1 -1.836970e-16 369.2205 287.4607)" style="fill:#CED6D2;" width="23.164" height="1.289"/>
			
				<rect x="25.979" y="327.696" transform="matrix(-1.836970e-16 1 -1 -1.836970e-16 365.9012 290.7798)" style="fill:#CED6D2;" width="23.164" height="1.289"/>
		</g>
		<g>
			
				<rect x="38.451" y="308.253" transform="matrix(-1.836970e-16 1 -1 -1.836970e-16 396.4447 245.8875)" style="fill:#E6EFEA;" width="73.655" height="25.826"/>
			
				<rect x="70.243" y="340.045" transform="matrix(-1.836970e-16 1 -1 -1.836970e-16 428.2368 277.6797)" style="fill:#EFCF6A;" width="10.071" height="25.826"/>
			
				<rect x="73.843" y="331.645" transform="matrix(-1.836970e-16 1 -1 -1.836970e-16 419.8368 269.2795)" style="fill:#EFCF6A;" width="2.871" height="25.826"/>
			
				<rect x="67.32" y="298.875" transform="matrix(-1.836970e-16 1 -1 -1.836970e-16 384.0788 218.5061)" style="fill:#EFCF6A;" width="30.932" height="4.834"/>
			
				<rect x="61.052" y="327.696" transform="matrix(-1.836970e-16 1 -1 -1.836970e-16 400.9748 255.7063)" style="fill:#CED6D2;" width="23.164" height="1.289"/>
			
				<rect x="57.733" y="327.696" transform="matrix(-1.836970e-16 1 -1 -1.836970e-16 397.6555 259.0256)" style="fill:#CED6D2;" width="23.164" height="1.289"/>
			
				<rect x="54.414" y="327.696" transform="matrix(-1.836970e-16 1 -1 -1.836970e-16 394.3363 262.3448)" style="fill:#CED6D2;" width="23.164" height="1.289"/>
		</g>
		<g>
			
				<rect x="66.886" y="308.253" transform="matrix(-1.836970e-16 1 -1 -1.836970e-16 424.8797 217.4525)" style="fill:#E6EFEA;" width="73.655" height="25.826"/>
			
				<rect x="98.678" y="340.045" transform="matrix(-1.836970e-16 1 -1 -1.836970e-16 456.6718 249.2446)" style="fill:#EFCF6A;" width="10.071" height="25.826"/>
			
				<rect x="102.278" y="331.645" transform="matrix(-1.836970e-16 1 -1 -1.836970e-16 448.2718 240.8446)" style="fill:#EFCF6A;" width="2.871" height="25.826"/>
			
				<rect x="95.755" y="298.875" transform="matrix(-1.836970e-16 1 -1 -1.836970e-16 412.5139 190.0711)" style="fill:#EFCF6A;" width="30.932" height="4.834"/>
			
				<rect x="89.487" y="327.696" transform="matrix(-1.836970e-16 1 -1 -1.836970e-16 429.4098 227.2713)" style="fill:#CED6D2;" width="23.164" height="1.289"/>
			
				<rect x="86.168" y="327.696" transform="matrix(-1.836970e-16 1 -1 -1.836970e-16 426.0906 230.5905)" style="fill:#CED6D2;" width="23.164" height="1.289"/>
			
				<rect x="82.849" y="327.696" transform="matrix(-1.836970e-16 1 -1 -1.836970e-16 422.7714 233.9097)" style="fill:#CED6D2;" width="23.164" height="1.289"/>
		</g>
		<g>
			<rect y="357.818" style="fill:#99AAA1;" width="500" height="15.107"/>
			<rect y="226.063" style="fill:#99AAA1;" width="500" height="15.107"/>
		</g>
		<g>
			<g>
				<path style="fill:#FFFFFF;" d="M137.496,165.189v-5.499h-16.414v5.499c0,2.374-1.077,4.619-2.929,6.104l-1.428,1.145
					c-2.762,2.216-4.37,5.566-4.37,9.107v42.102c0,1.284,1.041,2.325,2.325,2.325h29.218c1.284,0,2.325-1.041,2.325-2.325v-42.102
					c0-3.541-1.607-6.891-4.37-9.107l-1.428-1.145C138.574,169.808,137.496,167.563,137.496,165.189z"/>
				<rect x="119.895" y="156.233" style="fill:#7199A5;" width="18.787" height="6.513"/>
				<g>
					
						<line style="fill:none;stroke:#4C717A;stroke-width:0.2;stroke-miterlimit:10;" x1="120.213" y1="156.233" x2="120.213" y2="162.746"/>
					
						<line style="fill:none;stroke:#4C717A;stroke-width:0.2;stroke-miterlimit:10;" x1="120.911" y1="156.233" x2="120.911" y2="162.746"/>
					
						<line style="fill:none;stroke:#4C717A;stroke-width:0.2;stroke-miterlimit:10;" x1="121.609" y1="156.233" x2="121.609" y2="162.746"/>
					
						<line style="fill:none;stroke:#4C717A;stroke-width:0.2;stroke-miterlimit:10;" x1="122.308" y1="156.233" x2="122.308" y2="162.746"/>
					
						<line style="fill:none;stroke:#4C717A;stroke-width:0.2;stroke-miterlimit:10;" x1="123.006" y1="156.233" x2="123.006" y2="162.746"/>
					
						<line style="fill:none;stroke:#4C717A;stroke-width:0.2;stroke-miterlimit:10;" x1="123.704" y1="156.233" x2="123.704" y2="162.746"/>
					
						<line style="fill:none;stroke:#4C717A;stroke-width:0.2;stroke-miterlimit:10;" x1="124.402" y1="156.233" x2="124.402" y2="162.746"/>
					
						<line style="fill:none;stroke:#4C717A;stroke-width:0.2;stroke-miterlimit:10;" x1="125.1" y1="156.233" x2="125.1" y2="162.746"/>
					
						<line style="fill:none;stroke:#4C717A;stroke-width:0.2;stroke-miterlimit:10;" x1="125.798" y1="156.233" x2="125.798" y2="162.746"/>
					
						<line style="fill:none;stroke:#4C717A;stroke-width:0.2;stroke-miterlimit:10;" x1="126.496" y1="156.233" x2="126.496" y2="162.746"/>
					
						<line style="fill:none;stroke:#4C717A;stroke-width:0.2;stroke-miterlimit:10;" x1="127.194" y1="156.233" x2="127.194" y2="162.746"/>
					
						<line style="fill:none;stroke:#4C717A;stroke-width:0.2;stroke-miterlimit:10;" x1="127.893" y1="156.233" x2="127.893" y2="162.746"/>
					
						<line style="fill:none;stroke:#4C717A;stroke-width:0.2;stroke-miterlimit:10;" x1="128.591" y1="156.233" x2="128.591" y2="162.746"/>
					
						<line style="fill:none;stroke:#4C717A;stroke-width:0.2;stroke-miterlimit:10;" x1="129.289" y1="156.233" x2="129.289" y2="162.746"/>
					
						<line style="fill:none;stroke:#4C717A;stroke-width:0.2;stroke-miterlimit:10;" x1="129.987" y1="156.233" x2="129.987" y2="162.746"/>
					
						<line style="fill:none;stroke:#4C717A;stroke-width:0.2;stroke-miterlimit:10;" x1="130.685" y1="156.233" x2="130.685" y2="162.746"/>
					
						<line style="fill:none;stroke:#4C717A;stroke-width:0.2;stroke-miterlimit:10;" x1="131.383" y1="156.233" x2="131.383" y2="162.746"/>
					
						<line style="fill:none;stroke:#4C717A;stroke-width:0.2;stroke-miterlimit:10;" x1="132.081" y1="156.233" x2="132.081" y2="162.746"/>
					
						<line style="fill:none;stroke:#4C717A;stroke-width:0.2;stroke-miterlimit:10;" x1="132.779" y1="156.233" x2="132.779" y2="162.746"/>
					
						<line style="fill:none;stroke:#4C717A;stroke-width:0.2;stroke-miterlimit:10;" x1="133.477" y1="156.233" x2="133.477" y2="162.746"/>
					
						<line style="fill:none;stroke:#4C717A;stroke-width:0.2;stroke-miterlimit:10;" x1="134.176" y1="156.233" x2="134.176" y2="162.746"/>
					
						<line style="fill:none;stroke:#4C717A;stroke-width:0.2;stroke-miterlimit:10;" x1="134.874" y1="156.233" x2="134.874" y2="162.746"/>
					
						<line style="fill:none;stroke:#4C717A;stroke-width:0.2;stroke-miterlimit:10;" x1="135.572" y1="156.233" x2="135.572" y2="162.746"/>
					
						<line style="fill:none;stroke:#4C717A;stroke-width:0.2;stroke-miterlimit:10;" x1="136.27" y1="156.233" x2="136.27" y2="162.746"/>
					
						<line style="fill:none;stroke:#4C717A;stroke-width:0.2;stroke-miterlimit:10;" x1="136.968" y1="156.233" x2="136.968" y2="162.746"/>
					
						<line style="fill:none;stroke:#4C717A;stroke-width:0.2;stroke-miterlimit:10;" x1="137.666" y1="156.233" x2="137.666" y2="162.746"/>
					
						<line style="fill:none;stroke:#4C717A;stroke-width:0.2;stroke-miterlimit:10;" x1="138.364" y1="156.233" x2="138.364" y2="162.746"/>
				</g>
			</g>
			<rect x="114.963" y="182.572" style="fill:#7199A5;" width="28.652" height="35.252"/>
			<g>
				<path style="fill:#4C717A;" d="M122.916,187.211c0,1.359-1.102,2.46-2.461,2.46s-2.461-1.102-2.461-2.46s1.102-2.46,2.461-2.46
					S122.916,185.852,122.916,187.211z"/>
				<rect x="124.962" y="186.399" style="fill:#4C717A;" width="15.62" height="1.622"/>
			</g>
			<g>
				<rect x="125.287" y="210.029" style="fill:#4C717A;" width="17.153" height="1.014"/>
				<rect x="125.287" y="212.26" style="fill:#4C717A;" width="17.153" height="1.014"/>
				<rect x="125.287" y="214.491" style="fill:#4C717A;" width="17.153" height="1.014"/>
			</g>
		</g>
		<g>
			<g>
				<path style="fill:#EAF4F0;" d="M286.992,263.015v-12.446h-22.076v12.446l-4.559,3.657c-4.537,3.64-7.178,9.142-7.178,14.959
					v73.17c0,1.608,1.304,2.912,2.912,2.912h39.725c1.608,0,2.912-1.304,2.912-2.912v-73.17c0-5.817-2.64-11.319-7.177-14.959
					L286.992,263.015z"/>
				<g>
					<rect x="263.32" y="248.331" style="fill:#71A88E;" width="25.267" height="15.349"/>
					<g>
						
							<line style="fill:none;stroke:#57876F;stroke-width:0.356;stroke-miterlimit:10;" x1="263.748" y1="248.331" x2="263.748" y2="263.68"/>
						
							<line style="fill:none;stroke:#57876F;stroke-width:0.356;stroke-miterlimit:10;" x1="264.687" y1="248.331" x2="264.687" y2="263.68"/>
						
							<line style="fill:none;stroke:#57876F;stroke-width:0.356;stroke-miterlimit:10;" x1="265.626" y1="248.331" x2="265.626" y2="263.68"/>
						
							<line style="fill:none;stroke:#57876F;stroke-width:0.356;stroke-miterlimit:10;" x1="266.565" y1="248.331" x2="266.565" y2="263.68"/>
						
							<line style="fill:none;stroke:#57876F;stroke-width:0.356;stroke-miterlimit:10;" x1="267.504" y1="248.331" x2="267.504" y2="263.68"/>
						
							<line style="fill:none;stroke:#57876F;stroke-width:0.356;stroke-miterlimit:10;" x1="268.443" y1="248.331" x2="268.443" y2="263.68"/>
						
							<line style="fill:none;stroke:#57876F;stroke-width:0.356;stroke-miterlimit:10;" x1="269.382" y1="248.331" x2="269.382" y2="263.68"/>
						
							<line style="fill:none;stroke:#57876F;stroke-width:0.356;stroke-miterlimit:10;" x1="270.32" y1="248.331" x2="270.32" y2="263.68"/>
						
							<line style="fill:none;stroke:#57876F;stroke-width:0.356;stroke-miterlimit:10;" x1="271.259" y1="248.331" x2="271.259" y2="263.68"/>
						
							<line style="fill:none;stroke:#57876F;stroke-width:0.356;stroke-miterlimit:10;" x1="272.198" y1="248.331" x2="272.198" y2="263.68"/>
						
							<line style="fill:none;stroke:#57876F;stroke-width:0.356;stroke-miterlimit:10;" x1="273.137" y1="248.331" x2="273.137" y2="263.68"/>
						
							<line style="fill:none;stroke:#57876F;stroke-width:0.356;stroke-miterlimit:10;" x1="274.076" y1="248.331" x2="274.076" y2="263.68"/>
						
							<line style="fill:none;stroke:#57876F;stroke-width:0.356;stroke-miterlimit:10;" x1="275.015" y1="248.331" x2="275.015" y2="263.68"/>
						
							<line style="fill:none;stroke:#57876F;stroke-width:0.356;stroke-miterlimit:10;" x1="275.954" y1="248.331" x2="275.954" y2="263.68"/>
						
							<line style="fill:none;stroke:#57876F;stroke-width:0.356;stroke-miterlimit:10;" x1="276.893" y1="248.331" x2="276.893" y2="263.68"/>
						
							<line style="fill:none;stroke:#57876F;stroke-width:0.356;stroke-miterlimit:10;" x1="277.832" y1="248.331" x2="277.832" y2="263.68"/>
						
							<line style="fill:none;stroke:#57876F;stroke-width:0.356;stroke-miterlimit:10;" x1="278.771" y1="248.331" x2="278.771" y2="263.68"/>
						
							<line style="fill:none;stroke:#57876F;stroke-width:0.356;stroke-miterlimit:10;" x1="279.71" y1="248.331" x2="279.71" y2="263.68"/>
						
							<line style="fill:none;stroke:#57876F;stroke-width:0.356;stroke-miterlimit:10;" x1="280.648" y1="248.331" x2="280.648" y2="263.68"/>
						
							<line style="fill:none;stroke:#57876F;stroke-width:0.356;stroke-miterlimit:10;" x1="281.587" y1="248.331" x2="281.587" y2="263.68"/>
						
							<line style="fill:none;stroke:#57876F;stroke-width:0.356;stroke-miterlimit:10;" x1="282.526" y1="248.331" x2="282.526" y2="263.68"/>
						
							<line style="fill:none;stroke:#57876F;stroke-width:0.356;stroke-miterlimit:10;" x1="283.465" y1="248.331" x2="283.465" y2="263.68"/>
						
							<line style="fill:none;stroke:#57876F;stroke-width:0.356;stroke-miterlimit:10;" x1="284.404" y1="248.331" x2="284.404" y2="263.68"/>
						
							<line style="fill:none;stroke:#57876F;stroke-width:0.356;stroke-miterlimit:10;" x1="285.343" y1="248.331" x2="285.343" y2="263.68"/>
						
							<line style="fill:none;stroke:#57876F;stroke-width:0.356;stroke-miterlimit:10;" x1="286.282" y1="248.331" x2="286.282" y2="263.68"/>
						
							<line style="fill:none;stroke:#57876F;stroke-width:0.356;stroke-miterlimit:10;" x1="287.221" y1="248.331" x2="287.221" y2="263.68"/>
						
							<line style="fill:none;stroke:#57876F;stroke-width:0.356;stroke-miterlimit:10;" x1="288.16" y1="248.331" x2="288.16" y2="263.68"/>
					</g>
				</g>
			</g>
			<rect x="256.687" y="299.343" style="fill:#71A88E;" width="38.534" height="47.41"/>
			<g>
				<circle style="fill:#57876F;" cx="264.074" cy="305.582" r="3.309"/>
				<rect x="270.135" y="304.491" style="fill:#57876F;" width="21.008" height="2.182"/>
			</g>
			<g>
				<rect x="270.572" y="336.271" style="fill:#57876F;" width="23.069" height="1.364"/>
				<rect x="270.572" y="339.271" style="fill:#57876F;" width="23.069" height="1.364"/>
				<rect x="270.572" y="342.271" style="fill:#57876F;" width="23.069" height="1.364"/>
			</g>
		</g>
		<g>
			<g>
				<path style="fill:#EAF4F0;" d="M236.972,263.015v-12.446h-22.076v12.446l-4.559,3.657c-4.537,3.64-7.178,9.142-7.178,14.959
					v73.17c0,1.608,1.304,2.912,2.912,2.912h39.725c1.608,0,2.912-1.304,2.912-2.912v-73.17c0-5.817-2.64-11.319-7.178-14.959
					L236.972,263.015z"/>
				<g>
					<rect x="213.301" y="248.331" style="fill:#71A88E;" width="25.267" height="15.349"/>
					<g>
						
							<line style="fill:none;stroke:#57876F;stroke-width:0.356;stroke-miterlimit:10;" x1="213.729" y1="248.331" x2="213.729" y2="263.68"/>
						
							<line style="fill:none;stroke:#57876F;stroke-width:0.356;stroke-miterlimit:10;" x1="214.668" y1="248.331" x2="214.668" y2="263.68"/>
						
							<line style="fill:none;stroke:#57876F;stroke-width:0.356;stroke-miterlimit:10;" x1="215.607" y1="248.331" x2="215.607" y2="263.68"/>
						
							<line style="fill:none;stroke:#57876F;stroke-width:0.356;stroke-miterlimit:10;" x1="216.546" y1="248.331" x2="216.546" y2="263.68"/>
						
							<line style="fill:none;stroke:#57876F;stroke-width:0.356;stroke-miterlimit:10;" x1="217.484" y1="248.331" x2="217.484" y2="263.68"/>
						
							<line style="fill:none;stroke:#57876F;stroke-width:0.356;stroke-miterlimit:10;" x1="218.423" y1="248.331" x2="218.423" y2="263.68"/>
						
							<line style="fill:none;stroke:#57876F;stroke-width:0.356;stroke-miterlimit:10;" x1="219.362" y1="248.331" x2="219.362" y2="263.68"/>
						
							<line style="fill:none;stroke:#57876F;stroke-width:0.356;stroke-miterlimit:10;" x1="220.301" y1="248.331" x2="220.301" y2="263.68"/>
						
							<line style="fill:none;stroke:#57876F;stroke-width:0.356;stroke-miterlimit:10;" x1="221.24" y1="248.331" x2="221.24" y2="263.68"/>
						
							<line style="fill:none;stroke:#57876F;stroke-width:0.356;stroke-miterlimit:10;" x1="222.179" y1="248.331" x2="222.179" y2="263.68"/>
						
							<line style="fill:none;stroke:#57876F;stroke-width:0.356;stroke-miterlimit:10;" x1="223.118" y1="248.331" x2="223.118" y2="263.68"/>
						
							<line style="fill:none;stroke:#57876F;stroke-width:0.356;stroke-miterlimit:10;" x1="224.057" y1="248.331" x2="224.057" y2="263.68"/>
						
							<line style="fill:none;stroke:#57876F;stroke-width:0.356;stroke-miterlimit:10;" x1="224.996" y1="248.331" x2="224.996" y2="263.68"/>
						
							<line style="fill:none;stroke:#57876F;stroke-width:0.356;stroke-miterlimit:10;" x1="225.935" y1="248.331" x2="225.935" y2="263.68"/>
						
							<line style="fill:none;stroke:#57876F;stroke-width:0.356;stroke-miterlimit:10;" x1="226.873" y1="248.331" x2="226.873" y2="263.68"/>
						
							<line style="fill:none;stroke:#57876F;stroke-width:0.356;stroke-miterlimit:10;" x1="227.812" y1="248.331" x2="227.812" y2="263.68"/>
						
							<line style="fill:none;stroke:#57876F;stroke-width:0.356;stroke-miterlimit:10;" x1="228.751" y1="248.331" x2="228.751" y2="263.68"/>
						
							<line style="fill:none;stroke:#57876F;stroke-width:0.356;stroke-miterlimit:10;" x1="229.69" y1="248.331" x2="229.69" y2="263.68"/>
						
							<line style="fill:none;stroke:#57876F;stroke-width:0.356;stroke-miterlimit:10;" x1="230.629" y1="248.331" x2="230.629" y2="263.68"/>
						
							<line style="fill:none;stroke:#57876F;stroke-width:0.356;stroke-miterlimit:10;" x1="231.568" y1="248.331" x2="231.568" y2="263.68"/>
						
							<line style="fill:none;stroke:#57876F;stroke-width:0.356;stroke-miterlimit:10;" x1="232.507" y1="248.331" x2="232.507" y2="263.68"/>
						
							<line style="fill:none;stroke:#57876F;stroke-width:0.356;stroke-miterlimit:10;" x1="233.446" y1="248.331" x2="233.446" y2="263.68"/>
						
							<line style="fill:none;stroke:#57876F;stroke-width:0.356;stroke-miterlimit:10;" x1="234.385" y1="248.331" x2="234.385" y2="263.68"/>
						
							<line style="fill:none;stroke:#57876F;stroke-width:0.356;stroke-miterlimit:10;" x1="235.324" y1="248.331" x2="235.324" y2="263.68"/>
						
							<line style="fill:none;stroke:#57876F;stroke-width:0.356;stroke-miterlimit:10;" x1="236.262" y1="248.331" x2="236.262" y2="263.68"/>
						
							<line style="fill:none;stroke:#57876F;stroke-width:0.356;stroke-miterlimit:10;" x1="237.201" y1="248.331" x2="237.201" y2="263.68"/>
						
							<line style="fill:none;stroke:#57876F;stroke-width:0.356;stroke-miterlimit:10;" x1="238.14" y1="248.331" x2="238.14" y2="263.68"/>
					</g>
				</g>
			</g>
			<rect x="206.668" y="299.343" style="fill:#71A88E;" width="38.534" height="47.41"/>
			<g>
				<path style="fill:#57876F;" d="M217.364,305.582c0,1.828-1.482,3.309-3.309,3.309c-1.827,0-3.309-1.482-3.309-3.309
					c0-1.828,1.482-3.309,3.309-3.309C215.882,302.273,217.364,303.754,217.364,305.582z"/>
				<rect x="220.116" y="304.491" style="fill:#57876F;" width="21.008" height="2.182"/>
			</g>
			<g>
				<rect x="220.552" y="336.271" style="fill:#57876F;" width="23.069" height="1.364"/>
				<rect x="220.552" y="339.271" style="fill:#57876F;" width="23.069" height="1.364"/>
				<rect x="220.552" y="342.271" style="fill:#57876F;" width="23.069" height="1.364"/>
			</g>
		</g>
		<g>
			<g>
				<path style="fill:#EAF4F0;" d="M338.658,263.015v-12.446h-22.076v12.446l-4.559,3.657c-4.537,3.64-7.178,9.142-7.178,14.959
					v73.17c0,1.608,1.304,2.912,2.912,2.912h39.725c1.608,0,2.912-1.304,2.912-2.912v-73.17c0-5.817-2.64-11.319-7.177-14.959
					L338.658,263.015z"/>
				<g>
					<rect x="314.986" y="248.331" style="fill:#71A88E;" width="25.267" height="15.349"/>
					<g>
						
							<line style="fill:none;stroke:#57876F;stroke-width:0.356;stroke-miterlimit:10;" x1="315.414" y1="248.331" x2="315.414" y2="263.68"/>
						
							<line style="fill:none;stroke:#57876F;stroke-width:0.356;stroke-miterlimit:10;" x1="316.353" y1="248.331" x2="316.353" y2="263.68"/>
						
							<line style="fill:none;stroke:#57876F;stroke-width:0.356;stroke-miterlimit:10;" x1="317.292" y1="248.331" x2="317.292" y2="263.68"/>
						
							<line style="fill:none;stroke:#57876F;stroke-width:0.356;stroke-miterlimit:10;" x1="318.231" y1="248.331" x2="318.231" y2="263.68"/>
						
							<line style="fill:none;stroke:#57876F;stroke-width:0.356;stroke-miterlimit:10;" x1="319.17" y1="248.331" x2="319.17" y2="263.68"/>
						
							<line style="fill:none;stroke:#57876F;stroke-width:0.356;stroke-miterlimit:10;" x1="320.109" y1="248.331" x2="320.109" y2="263.68"/>
						
							<line style="fill:none;stroke:#57876F;stroke-width:0.356;stroke-miterlimit:10;" x1="321.047" y1="248.331" x2="321.047" y2="263.68"/>
						
							<line style="fill:none;stroke:#57876F;stroke-width:0.356;stroke-miterlimit:10;" x1="321.986" y1="248.331" x2="321.986" y2="263.68"/>
						
							<line style="fill:none;stroke:#57876F;stroke-width:0.356;stroke-miterlimit:10;" x1="322.925" y1="248.331" x2="322.925" y2="263.68"/>
						
							<line style="fill:none;stroke:#57876F;stroke-width:0.356;stroke-miterlimit:10;" x1="323.864" y1="248.331" x2="323.864" y2="263.68"/>
						
							<line style="fill:none;stroke:#57876F;stroke-width:0.356;stroke-miterlimit:10;" x1="324.803" y1="248.331" x2="324.803" y2="263.68"/>
						
							<line style="fill:none;stroke:#57876F;stroke-width:0.356;stroke-miterlimit:10;" x1="325.742" y1="248.331" x2="325.742" y2="263.68"/>
						
							<line style="fill:none;stroke:#57876F;stroke-width:0.356;stroke-miterlimit:10;" x1="326.681" y1="248.331" x2="326.681" y2="263.68"/>
						
							<line style="fill:none;stroke:#57876F;stroke-width:0.356;stroke-miterlimit:10;" x1="327.62" y1="248.331" x2="327.62" y2="263.68"/>
						
							<line style="fill:none;stroke:#57876F;stroke-width:0.356;stroke-miterlimit:10;" x1="328.559" y1="248.331" x2="328.559" y2="263.68"/>
						
							<line style="fill:none;stroke:#57876F;stroke-width:0.356;stroke-miterlimit:10;" x1="329.498" y1="248.331" x2="329.498" y2="263.68"/>
						
							<line style="fill:none;stroke:#57876F;stroke-width:0.356;stroke-miterlimit:10;" x1="330.436" y1="248.331" x2="330.436" y2="263.68"/>
						
							<line style="fill:none;stroke:#57876F;stroke-width:0.356;stroke-miterlimit:10;" x1="331.375" y1="248.331" x2="331.375" y2="263.68"/>
						
							<line style="fill:none;stroke:#57876F;stroke-width:0.356;stroke-miterlimit:10;" x1="332.314" y1="248.331" x2="332.314" y2="263.68"/>
						
							<line style="fill:none;stroke:#57876F;stroke-width:0.356;stroke-miterlimit:10;" x1="333.253" y1="248.331" x2="333.253" y2="263.68"/>
						
							<line style="fill:none;stroke:#57876F;stroke-width:0.356;stroke-miterlimit:10;" x1="334.192" y1="248.331" x2="334.192" y2="263.68"/>
						
							<line style="fill:none;stroke:#57876F;stroke-width:0.356;stroke-miterlimit:10;" x1="335.131" y1="248.331" x2="335.131" y2="263.68"/>
						
							<line style="fill:none;stroke:#57876F;stroke-width:0.356;stroke-miterlimit:10;" x1="336.07" y1="248.331" x2="336.07" y2="263.68"/>
						
							<line style="fill:none;stroke:#57876F;stroke-width:0.356;stroke-miterlimit:10;" x1="337.009" y1="248.331" x2="337.009" y2="263.68"/>
						
							<line style="fill:none;stroke:#57876F;stroke-width:0.356;stroke-miterlimit:10;" x1="337.948" y1="248.331" x2="337.948" y2="263.68"/>
						
							<line style="fill:none;stroke:#57876F;stroke-width:0.356;stroke-miterlimit:10;" x1="338.887" y1="248.331" x2="338.887" y2="263.68"/>
						
							<line style="fill:none;stroke:#57876F;stroke-width:0.356;stroke-miterlimit:10;" x1="339.825" y1="248.331" x2="339.825" y2="263.68"/>
					</g>
				</g>
			</g>
			<rect x="308.353" y="299.343" style="fill:#71A88E;" width="38.534" height="47.41"/>
			<g>
				<path style="fill:#57876F;" d="M319.049,305.582c0,1.828-1.482,3.309-3.309,3.309c-1.828,0-3.309-1.482-3.309-3.309
					c0-1.828,1.482-3.309,3.309-3.309C317.568,302.273,319.049,303.754,319.049,305.582z"/>
				<rect x="321.801" y="304.491" style="fill:#57876F;" width="21.008" height="2.182"/>
			</g>
			<g>
				<rect x="322.238" y="336.271" style="fill:#57876F;" width="23.069" height="1.364"/>
				<rect x="322.238" y="339.271" style="fill:#57876F;" width="23.069" height="1.364"/>
				<rect x="322.238" y="342.271" style="fill:#57876F;" width="23.069" height="1.364"/>
			</g>
		</g>
		<g>
			<g>
				<path style="fill:#EAF4F0;" d="M390.324,263.015v-12.446h-22.076v12.446l-4.559,3.657c-4.537,3.64-7.178,9.142-7.178,14.959
					v73.17c0,1.608,1.304,2.912,2.912,2.912h39.725c1.608,0,2.912-1.304,2.912-2.912v-73.17c0-5.817-2.64-11.319-7.178-14.959
					L390.324,263.015z"/>
				<g>
					<rect x="366.652" y="248.331" style="fill:#71A88E;" width="25.267" height="15.349"/>
					<g>
						
							<line style="fill:none;stroke:#57876F;stroke-width:0.356;stroke-miterlimit:10;" x1="367.08" y1="248.331" x2="367.08" y2="263.68"/>
						
							<line style="fill:none;stroke:#57876F;stroke-width:0.356;stroke-miterlimit:10;" x1="368.019" y1="248.331" x2="368.019" y2="263.68"/>
						
							<line style="fill:none;stroke:#57876F;stroke-width:0.356;stroke-miterlimit:10;" x1="368.958" y1="248.331" x2="368.958" y2="263.68"/>
						
							<line style="fill:none;stroke:#57876F;stroke-width:0.356;stroke-miterlimit:10;" x1="369.897" y1="248.331" x2="369.897" y2="263.68"/>
						
							<line style="fill:none;stroke:#57876F;stroke-width:0.356;stroke-miterlimit:10;" x1="370.835" y1="248.331" x2="370.835" y2="263.68"/>
						
							<line style="fill:none;stroke:#57876F;stroke-width:0.356;stroke-miterlimit:10;" x1="371.774" y1="248.331" x2="371.774" y2="263.68"/>
						
							<line style="fill:none;stroke:#57876F;stroke-width:0.356;stroke-miterlimit:10;" x1="372.713" y1="248.331" x2="372.713" y2="263.68"/>
						
							<line style="fill:none;stroke:#57876F;stroke-width:0.356;stroke-miterlimit:10;" x1="373.652" y1="248.331" x2="373.652" y2="263.68"/>
						
							<line style="fill:none;stroke:#57876F;stroke-width:0.356;stroke-miterlimit:10;" x1="374.591" y1="248.331" x2="374.591" y2="263.68"/>
						
							<line style="fill:none;stroke:#57876F;stroke-width:0.356;stroke-miterlimit:10;" x1="375.53" y1="248.331" x2="375.53" y2="263.68"/>
						
							<line style="fill:none;stroke:#57876F;stroke-width:0.356;stroke-miterlimit:10;" x1="376.469" y1="248.331" x2="376.469" y2="263.68"/>
						
							<line style="fill:none;stroke:#57876F;stroke-width:0.356;stroke-miterlimit:10;" x1="377.408" y1="248.331" x2="377.408" y2="263.68"/>
						
							<line style="fill:none;stroke:#57876F;stroke-width:0.356;stroke-miterlimit:10;" x1="378.347" y1="248.331" x2="378.347" y2="263.68"/>
						
							<line style="fill:none;stroke:#57876F;stroke-width:0.356;stroke-miterlimit:10;" x1="379.286" y1="248.331" x2="379.286" y2="263.68"/>
						
							<line style="fill:none;stroke:#57876F;stroke-width:0.356;stroke-miterlimit:10;" x1="380.224" y1="248.331" x2="380.224" y2="263.68"/>
						
							<line style="fill:none;stroke:#57876F;stroke-width:0.356;stroke-miterlimit:10;" x1="381.163" y1="248.331" x2="381.163" y2="263.68"/>
						
							<line style="fill:none;stroke:#57876F;stroke-width:0.356;stroke-miterlimit:10;" x1="382.102" y1="248.331" x2="382.102" y2="263.68"/>
						
							<line style="fill:none;stroke:#57876F;stroke-width:0.356;stroke-miterlimit:10;" x1="383.041" y1="248.331" x2="383.041" y2="263.68"/>
						
							<line style="fill:none;stroke:#57876F;stroke-width:0.356;stroke-miterlimit:10;" x1="383.98" y1="248.331" x2="383.98" y2="263.68"/>
						
							<line style="fill:none;stroke:#57876F;stroke-width:0.356;stroke-miterlimit:10;" x1="384.919" y1="248.331" x2="384.919" y2="263.68"/>
						
							<line style="fill:none;stroke:#57876F;stroke-width:0.356;stroke-miterlimit:10;" x1="385.858" y1="248.331" x2="385.858" y2="263.68"/>
						
							<line style="fill:none;stroke:#57876F;stroke-width:0.356;stroke-miterlimit:10;" x1="386.797" y1="248.331" x2="386.797" y2="263.68"/>
						
							<line style="fill:none;stroke:#57876F;stroke-width:0.356;stroke-miterlimit:10;" x1="387.736" y1="248.331" x2="387.736" y2="263.68"/>
						
							<line style="fill:none;stroke:#57876F;stroke-width:0.356;stroke-miterlimit:10;" x1="388.675" y1="248.331" x2="388.675" y2="263.68"/>
						
							<line style="fill:none;stroke:#57876F;stroke-width:0.356;stroke-miterlimit:10;" x1="389.613" y1="248.331" x2="389.613" y2="263.68"/>
						
							<line style="fill:none;stroke:#57876F;stroke-width:0.356;stroke-miterlimit:10;" x1="390.552" y1="248.331" x2="390.552" y2="263.68"/>
						
							<line style="fill:none;stroke:#57876F;stroke-width:0.356;stroke-miterlimit:10;" x1="391.491" y1="248.331" x2="391.491" y2="263.68"/>
					</g>
				</g>
			</g>
			<rect x="360.019" y="299.343" style="fill:#71A88E;" width="38.534" height="47.41"/>
			<g>
				<circle style="fill:#57876F;" cx="367.406" cy="305.582" r="3.309"/>
				<rect x="373.467" y="304.491" style="fill:#57876F;" width="21.008" height="2.182"/>
			</g>
			<g>
				<rect x="373.903" y="336.271" style="fill:#57876F;" width="23.069" height="1.364"/>
				<rect x="373.903" y="339.271" style="fill:#57876F;" width="23.069" height="1.364"/>
				<rect x="373.903" y="342.271" style="fill:#57876F;" width="23.069" height="1.364"/>
			</g>
		</g>
		<g>
			<g>
				<path style="fill:#FFFFFF;" d="M176.764,165.189v-5.499H160.35v5.499c0,2.374-1.077,4.619-2.929,6.104l-1.428,1.145
					c-2.762,2.216-4.37,5.566-4.37,9.107v42.102c0,1.284,1.041,2.325,2.325,2.325h29.218c1.284,0,2.325-1.041,2.325-2.325v-42.102
					c0-3.541-1.607-6.891-4.37-9.107l-1.428-1.145C177.842,169.808,176.764,167.563,176.764,165.189z"/>
				<rect x="159.163" y="156.233" style="fill:#7199A5;" width="18.787" height="6.513"/>
				<g>
					
						<line style="fill:none;stroke:#4C717A;stroke-width:0.2;stroke-miterlimit:10;" x1="159.482" y1="156.233" x2="159.482" y2="162.746"/>
					
						<line style="fill:none;stroke:#4C717A;stroke-width:0.2;stroke-miterlimit:10;" x1="160.18" y1="156.233" x2="160.18" y2="162.746"/>
					
						<line style="fill:none;stroke:#4C717A;stroke-width:0.2;stroke-miterlimit:10;" x1="160.878" y1="156.233" x2="160.878" y2="162.746"/>
					
						<line style="fill:none;stroke:#4C717A;stroke-width:0.2;stroke-miterlimit:10;" x1="161.576" y1="156.233" x2="161.576" y2="162.746"/>
					
						<line style="fill:none;stroke:#4C717A;stroke-width:0.2;stroke-miterlimit:10;" x1="162.274" y1="156.233" x2="162.274" y2="162.746"/>
					
						<line style="fill:none;stroke:#4C717A;stroke-width:0.2;stroke-miterlimit:10;" x1="162.972" y1="156.233" x2="162.972" y2="162.746"/>
					
						<line style="fill:none;stroke:#4C717A;stroke-width:0.2;stroke-miterlimit:10;" x1="163.67" y1="156.233" x2="163.67" y2="162.746"/>
					
						<line style="fill:none;stroke:#4C717A;stroke-width:0.2;stroke-miterlimit:10;" x1="164.368" y1="156.233" x2="164.368" y2="162.746"/>
					
						<line style="fill:none;stroke:#4C717A;stroke-width:0.2;stroke-miterlimit:10;" x1="165.066" y1="156.233" x2="165.066" y2="162.746"/>
					
						<line style="fill:none;stroke:#4C717A;stroke-width:0.2;stroke-miterlimit:10;" x1="165.765" y1="156.233" x2="165.765" y2="162.746"/>
					
						<line style="fill:none;stroke:#4C717A;stroke-width:0.2;stroke-miterlimit:10;" x1="166.463" y1="156.233" x2="166.463" y2="162.746"/>
					
						<line style="fill:none;stroke:#4C717A;stroke-width:0.2;stroke-miterlimit:10;" x1="167.161" y1="156.233" x2="167.161" y2="162.746"/>
					
						<line style="fill:none;stroke:#4C717A;stroke-width:0.2;stroke-miterlimit:10;" x1="167.859" y1="156.233" x2="167.859" y2="162.746"/>
					
						<line style="fill:none;stroke:#4C717A;stroke-width:0.2;stroke-miterlimit:10;" x1="168.557" y1="156.233" x2="168.557" y2="162.746"/>
					
						<line style="fill:none;stroke:#4C717A;stroke-width:0.2;stroke-miterlimit:10;" x1="169.255" y1="156.233" x2="169.255" y2="162.746"/>
					
						<line style="fill:none;stroke:#4C717A;stroke-width:0.2;stroke-miterlimit:10;" x1="169.953" y1="156.233" x2="169.953" y2="162.746"/>
					
						<line style="fill:none;stroke:#4C717A;stroke-width:0.2;stroke-miterlimit:10;" x1="170.651" y1="156.233" x2="170.651" y2="162.746"/>
					
						<line style="fill:none;stroke:#4C717A;stroke-width:0.2;stroke-miterlimit:10;" x1="171.35" y1="156.233" x2="171.35" y2="162.746"/>
					
						<line style="fill:none;stroke:#4C717A;stroke-width:0.2;stroke-miterlimit:10;" x1="172.048" y1="156.233" x2="172.048" y2="162.746"/>
					
						<line style="fill:none;stroke:#4C717A;stroke-width:0.2;stroke-miterlimit:10;" x1="172.746" y1="156.233" x2="172.746" y2="162.746"/>
					
						<line style="fill:none;stroke:#4C717A;stroke-width:0.2;stroke-miterlimit:10;" x1="173.444" y1="156.233" x2="173.444" y2="162.746"/>
					
						<line style="fill:none;stroke:#4C717A;stroke-width:0.2;stroke-miterlimit:10;" x1="174.142" y1="156.233" x2="174.142" y2="162.746"/>
					
						<line style="fill:none;stroke:#4C717A;stroke-width:0.2;stroke-miterlimit:10;" x1="174.84" y1="156.233" x2="174.84" y2="162.746"/>
					
						<line style="fill:none;stroke:#4C717A;stroke-width:0.2;stroke-miterlimit:10;" x1="175.538" y1="156.233" x2="175.538" y2="162.746"/>
					
						<line style="fill:none;stroke:#4C717A;stroke-width:0.2;stroke-miterlimit:10;" x1="176.236" y1="156.233" x2="176.236" y2="162.746"/>
					
						<line style="fill:none;stroke:#4C717A;stroke-width:0.2;stroke-miterlimit:10;" x1="176.935" y1="156.233" x2="176.935" y2="162.746"/>
					
						<line style="fill:none;stroke:#4C717A;stroke-width:0.2;stroke-miterlimit:10;" x1="177.633" y1="156.233" x2="177.633" y2="162.746"/>
				</g>
			</g>
			<rect x="154.231" y="182.572" style="fill:#7199A5;" width="28.652" height="35.252"/>
			<g>
				<circle style="fill:#4C717A;" cx="159.724" cy="187.211" r="2.461"/>
				<rect x="164.231" y="186.399" style="fill:#4C717A;" width="15.62" height="1.622"/>
			</g>
			<g>
				<rect x="164.555" y="210.029" style="fill:#4C717A;" width="17.153" height="1.014"/>
				<rect x="164.555" y="212.26" style="fill:#4C717A;" width="17.153" height="1.014"/>
				<rect x="164.555" y="214.491" style="fill:#4C717A;" width="17.153" height="1.014"/>
			</g>
		</g>
		<g>
			<g>
				<path style="fill:#FFFFFF;" d="M216.033,165.189v-5.499h-16.415v5.499c0,2.374-1.077,4.619-2.929,6.104l-1.428,1.145
					c-2.762,2.216-4.37,5.566-4.37,9.107v42.102c0,1.284,1.041,2.325,2.325,2.325h29.218c1.284,0,2.325-1.041,2.325-2.325v-42.102
					c0-3.541-1.607-6.891-4.37-9.107l-1.428-1.145C217.11,169.808,216.033,167.563,216.033,165.189z"/>
				<rect x="198.432" y="156.233" style="fill:#7199A5;" width="18.787" height="6.513"/>
				<g>
					
						<line style="fill:none;stroke:#4C717A;stroke-width:0.2;stroke-miterlimit:10;" x1="198.75" y1="156.233" x2="198.75" y2="162.746"/>
					
						<line style="fill:none;stroke:#4C717A;stroke-width:0.2;stroke-miterlimit:10;" x1="199.448" y1="156.233" x2="199.448" y2="162.746"/>
					
						<line style="fill:none;stroke:#4C717A;stroke-width:0.2;stroke-miterlimit:10;" x1="200.146" y1="156.233" x2="200.146" y2="162.746"/>
					
						<line style="fill:none;stroke:#4C717A;stroke-width:0.2;stroke-miterlimit:10;" x1="200.844" y1="156.233" x2="200.844" y2="162.746"/>
					
						<line style="fill:none;stroke:#4C717A;stroke-width:0.2;stroke-miterlimit:10;" x1="201.542" y1="156.233" x2="201.542" y2="162.746"/>
					
						<line style="fill:none;stroke:#4C717A;stroke-width:0.2;stroke-miterlimit:10;" x1="202.24" y1="156.233" x2="202.24" y2="162.746"/>
					
						<line style="fill:none;stroke:#4C717A;stroke-width:0.2;stroke-miterlimit:10;" x1="202.939" y1="156.233" x2="202.939" y2="162.746"/>
					
						<line style="fill:none;stroke:#4C717A;stroke-width:0.2;stroke-miterlimit:10;" x1="203.637" y1="156.233" x2="203.637" y2="162.746"/>
					
						<line style="fill:none;stroke:#4C717A;stroke-width:0.2;stroke-miterlimit:10;" x1="204.335" y1="156.233" x2="204.335" y2="162.746"/>
					
						<line style="fill:none;stroke:#4C717A;stroke-width:0.2;stroke-miterlimit:10;" x1="205.033" y1="156.233" x2="205.033" y2="162.746"/>
					
						<line style="fill:none;stroke:#4C717A;stroke-width:0.2;stroke-miterlimit:10;" x1="205.731" y1="156.233" x2="205.731" y2="162.746"/>
					
						<line style="fill:none;stroke:#4C717A;stroke-width:0.2;stroke-miterlimit:10;" x1="206.429" y1="156.233" x2="206.429" y2="162.746"/>
					
						<line style="fill:none;stroke:#4C717A;stroke-width:0.2;stroke-miterlimit:10;" x1="207.127" y1="156.233" x2="207.127" y2="162.746"/>
					
						<line style="fill:none;stroke:#4C717A;stroke-width:0.2;stroke-miterlimit:10;" x1="207.825" y1="156.233" x2="207.825" y2="162.746"/>
					
						<line style="fill:none;stroke:#4C717A;stroke-width:0.2;stroke-miterlimit:10;" x1="208.523" y1="156.233" x2="208.523" y2="162.746"/>
					
						<line style="fill:none;stroke:#4C717A;stroke-width:0.2;stroke-miterlimit:10;" x1="209.222" y1="156.233" x2="209.222" y2="162.746"/>
					
						<line style="fill:none;stroke:#4C717A;stroke-width:0.2;stroke-miterlimit:10;" x1="209.92" y1="156.233" x2="209.92" y2="162.746"/>
					
						<line style="fill:none;stroke:#4C717A;stroke-width:0.2;stroke-miterlimit:10;" x1="210.618" y1="156.233" x2="210.618" y2="162.746"/>
					
						<line style="fill:none;stroke:#4C717A;stroke-width:0.2;stroke-miterlimit:10;" x1="211.316" y1="156.233" x2="211.316" y2="162.746"/>
					
						<line style="fill:none;stroke:#4C717A;stroke-width:0.2;stroke-miterlimit:10;" x1="212.014" y1="156.233" x2="212.014" y2="162.746"/>
					
						<line style="fill:none;stroke:#4C717A;stroke-width:0.2;stroke-miterlimit:10;" x1="212.712" y1="156.233" x2="212.712" y2="162.746"/>
					
						<line style="fill:none;stroke:#4C717A;stroke-width:0.2;stroke-miterlimit:10;" x1="213.41" y1="156.233" x2="213.41" y2="162.746"/>
					
						<line style="fill:none;stroke:#4C717A;stroke-width:0.2;stroke-miterlimit:10;" x1="214.108" y1="156.233" x2="214.108" y2="162.746"/>
					
						<line style="fill:none;stroke:#4C717A;stroke-width:0.2;stroke-miterlimit:10;" x1="214.807" y1="156.233" x2="214.807" y2="162.746"/>
					
						<line style="fill:none;stroke:#4C717A;stroke-width:0.2;stroke-miterlimit:10;" x1="215.505" y1="156.233" x2="215.505" y2="162.746"/>
					
						<line style="fill:none;stroke:#4C717A;stroke-width:0.2;stroke-miterlimit:10;" x1="216.203" y1="156.233" x2="216.203" y2="162.746"/>
					
						<line style="fill:none;stroke:#4C717A;stroke-width:0.2;stroke-miterlimit:10;" x1="216.901" y1="156.233" x2="216.901" y2="162.746"/>
				</g>
			</g>
			<rect x="193.499" y="182.572" style="fill:#7199A5;" width="28.652" height="35.252"/>
			<g>
				<circle style="fill:#4C717A;" cx="198.992" cy="187.211" r="2.461"/>
				<rect x="203.499" y="186.399" style="fill:#4C717A;" width="15.62" height="1.622"/>
			</g>
			<g>
				<rect x="203.824" y="210.029" style="fill:#4C717A;" width="17.153" height="1.014"/>
				<rect x="203.824" y="212.26" style="fill:#4C717A;" width="17.153" height="1.014"/>
				<rect x="203.824" y="214.491" style="fill:#4C717A;" width="17.153" height="1.014"/>
			</g>
		</g>
		<g>
			<g>
				<path style="fill:#FFFFFF;" d="M255.301,165.189v-5.499h-16.415v5.499c0,2.374-1.077,4.619-2.929,6.104l-1.428,1.145
					c-2.762,2.216-4.37,5.566-4.37,9.107v42.102c0,1.284,1.041,2.325,2.325,2.325h29.218c1.284,0,2.325-1.041,2.325-2.325v-42.102
					c0-3.541-1.607-6.891-4.37-9.107l-1.428-1.145C256.378,169.808,255.301,167.563,255.301,165.189z"/>
				<rect x="237.7" y="156.233" style="fill:#7199A5;" width="18.787" height="6.513"/>
				<g>
					
						<line style="fill:none;stroke:#4C717A;stroke-width:0.2;stroke-miterlimit:10;" x1="238.018" y1="156.233" x2="238.018" y2="162.746"/>
					
						<line style="fill:none;stroke:#4C717A;stroke-width:0.2;stroke-miterlimit:10;" x1="238.716" y1="156.233" x2="238.716" y2="162.746"/>
					
						<line style="fill:none;stroke:#4C717A;stroke-width:0.2;stroke-miterlimit:10;" x1="239.414" y1="156.233" x2="239.414" y2="162.746"/>
					
						<line style="fill:none;stroke:#4C717A;stroke-width:0.2;stroke-miterlimit:10;" x1="240.112" y1="156.233" x2="240.112" y2="162.746"/>
					
						<line style="fill:none;stroke:#4C717A;stroke-width:0.2;stroke-miterlimit:10;" x1="240.811" y1="156.233" x2="240.811" y2="162.746"/>
					
						<line style="fill:none;stroke:#4C717A;stroke-width:0.2;stroke-miterlimit:10;" x1="241.509" y1="156.233" x2="241.509" y2="162.746"/>
					
						<line style="fill:none;stroke:#4C717A;stroke-width:0.2;stroke-miterlimit:10;" x1="242.207" y1="156.233" x2="242.207" y2="162.746"/>
					
						<line style="fill:none;stroke:#4C717A;stroke-width:0.2;stroke-miterlimit:10;" x1="242.905" y1="156.233" x2="242.905" y2="162.746"/>
					
						<line style="fill:none;stroke:#4C717A;stroke-width:0.2;stroke-miterlimit:10;" x1="243.603" y1="156.233" x2="243.603" y2="162.746"/>
					
						<line style="fill:none;stroke:#4C717A;stroke-width:0.2;stroke-miterlimit:10;" x1="244.301" y1="156.233" x2="244.301" y2="162.746"/>
					
						<line style="fill:none;stroke:#4C717A;stroke-width:0.2;stroke-miterlimit:10;" x1="244.999" y1="156.233" x2="244.999" y2="162.746"/>
					
						<line style="fill:none;stroke:#4C717A;stroke-width:0.2;stroke-miterlimit:10;" x1="245.697" y1="156.233" x2="245.697" y2="162.746"/>
					
						<line style="fill:none;stroke:#4C717A;stroke-width:0.2;stroke-miterlimit:10;" x1="246.396" y1="156.233" x2="246.396" y2="162.746"/>
					
						<line style="fill:none;stroke:#4C717A;stroke-width:0.2;stroke-miterlimit:10;" x1="247.094" y1="156.233" x2="247.094" y2="162.746"/>
					
						<line style="fill:none;stroke:#4C717A;stroke-width:0.2;stroke-miterlimit:10;" x1="247.792" y1="156.233" x2="247.792" y2="162.746"/>
					
						<line style="fill:none;stroke:#4C717A;stroke-width:0.2;stroke-miterlimit:10;" x1="248.49" y1="156.233" x2="248.49" y2="162.746"/>
					
						<line style="fill:none;stroke:#4C717A;stroke-width:0.2;stroke-miterlimit:10;" x1="249.188" y1="156.233" x2="249.188" y2="162.746"/>
					
						<line style="fill:none;stroke:#4C717A;stroke-width:0.2;stroke-miterlimit:10;" x1="249.886" y1="156.233" x2="249.886" y2="162.746"/>
					
						<line style="fill:none;stroke:#4C717A;stroke-width:0.2;stroke-miterlimit:10;" x1="250.584" y1="156.233" x2="250.584" y2="162.746"/>
					
						<line style="fill:none;stroke:#4C717A;stroke-width:0.2;stroke-miterlimit:10;" x1="251.282" y1="156.233" x2="251.282" y2="162.746"/>
					
						<line style="fill:none;stroke:#4C717A;stroke-width:0.2;stroke-miterlimit:10;" x1="251.981" y1="156.233" x2="251.981" y2="162.746"/>
					
						<line style="fill:none;stroke:#4C717A;stroke-width:0.2;stroke-miterlimit:10;" x1="252.679" y1="156.233" x2="252.679" y2="162.746"/>
					
						<line style="fill:none;stroke:#4C717A;stroke-width:0.2;stroke-miterlimit:10;" x1="253.377" y1="156.233" x2="253.377" y2="162.746"/>
					
						<line style="fill:none;stroke:#4C717A;stroke-width:0.2;stroke-miterlimit:10;" x1="254.075" y1="156.233" x2="254.075" y2="162.746"/>
					
						<line style="fill:none;stroke:#4C717A;stroke-width:0.2;stroke-miterlimit:10;" x1="254.773" y1="156.233" x2="254.773" y2="162.746"/>
					
						<line style="fill:none;stroke:#4C717A;stroke-width:0.2;stroke-miterlimit:10;" x1="255.471" y1="156.233" x2="255.471" y2="162.746"/>
					
						<line style="fill:none;stroke:#4C717A;stroke-width:0.2;stroke-miterlimit:10;" x1="256.169" y1="156.233" x2="256.169" y2="162.746"/>
				</g>
			</g>
			<rect x="232.768" y="182.572" style="fill:#7199A5;" width="28.652" height="35.252"/>
			<g>
				<circle style="fill:#4C717A;" cx="238.26" cy="187.211" r="2.46"/>
				<rect x="242.767" y="186.399" style="fill:#4C717A;" width="15.62" height="1.622"/>
			</g>
			<g>
				<rect x="243.092" y="210.029" style="fill:#4C717A;" width="17.153" height="1.014"/>
				<rect x="243.092" y="212.26" style="fill:#4C717A;" width="17.153" height="1.014"/>
				<rect x="243.092" y="214.491" style="fill:#4C717A;" width="17.153" height="1.014"/>
			</g>
		</g>
		<g>
			<g>
				<rect x="74.656" y="214.494" style="fill:#71A88E;" width="22.79" height="11.479"/>
				<polygon style="fill:#FFFFFF;" points="100.583,145.017 71.518,145.017 74.656,214.494 97.446,214.494 				"/>
				
					<line style="fill:none;stroke:#CED6D2;stroke-width:1.046;stroke-miterlimit:10;" x1="71.623" y1="147.339" x2="100.583" y2="147.339"/>
			</g>
			<rect x="78.53" y="155.243" style="fill:#71A88E;" width="15.041" height="51.059"/>
			<rect x="89.721" y="156.644" style="fill:#FFFFFF;" width="2.301" height="22.382"/>
			<g>
				<rect x="80.203" y="194.297" style="fill:#57876F;" width="11.82" height="1.151"/>
				<rect x="80.203" y="197.091" style="fill:#57876F;" width="11.82" height="1.151"/>
				<rect x="80.203" y="199.885" style="fill:#57876F;" width="11.82" height="1.151"/>
				<rect x="80.203" y="202.679" style="fill:#57876F;" width="11.82" height="1.151"/>
			</g>
		</g>
		<g>
			<g>
				<rect x="41.581" y="214.494" style="fill:#71A88E;" width="22.79" height="11.479"/>
				<polygon style="fill:#FFFFFF;" points="67.508,145.017 38.443,145.017 41.581,214.494 64.37,214.494 				"/>
				
					<line style="fill:none;stroke:#CED6D2;stroke-width:1.046;stroke-miterlimit:10;" x1="38.548" y1="147.339" x2="67.508" y2="147.339"/>
			</g>
			<rect x="45.455" y="155.243" style="fill:#71A88E;" width="15.041" height="51.059"/>
			<rect x="56.646" y="156.644" style="fill:#FFFFFF;" width="2.301" height="22.382"/>
			<g>
				<rect x="47.128" y="194.297" style="fill:#57876F;" width="11.82" height="1.151"/>
				<rect x="47.128" y="197.091" style="fill:#57876F;" width="11.82" height="1.151"/>
				<rect x="47.128" y="199.885" style="fill:#57876F;" width="11.82" height="1.151"/>
				<rect x="47.128" y="202.679" style="fill:#57876F;" width="11.82" height="1.151"/>
			</g>
		</g>
		<g>
			<g>
				<rect x="8.515" y="214.494" style="fill:#71A88E;" width="22.79" height="11.479"/>
				<polygon style="fill:#FFFFFF;" points="34.443,145.017 5.377,145.017 8.515,214.494 31.305,214.494 				"/>
				
					<line style="fill:none;stroke:#CED6D2;stroke-width:1.046;stroke-miterlimit:10;" x1="5.482" y1="147.339" x2="34.443" y2="147.339"/>
			</g>
			<rect x="12.389" y="155.243" style="fill:#71A88E;" width="15.041" height="51.059"/>
			<rect x="23.581" y="156.644" style="fill:#FFFFFF;" width="2.301" height="22.382"/>
			<g>
				<rect x="14.062" y="194.297" style="fill:#57876F;" width="11.82" height="1.151"/>
				<rect x="14.062" y="197.091" style="fill:#57876F;" width="11.82" height="1.151"/>
				<rect x="14.062" y="199.885" style="fill:#57876F;" width="11.82" height="1.151"/>
				<rect x="14.062" y="202.679" style="fill:#57876F;" width="11.82" height="1.151"/>
			</g>
		</g>
	</g>
	<g>
		<path style="fill:#393E3F;" d="M195.227,73.445c0,0,8.721-3.395,14.938-18.021c-8.409-6.791-23.818-26.379-38.967-24.812
			c-15.148,1.567-34.988,18.153-28.469,28.796c-13.581-6.334-19.006-1.894-1.276,31.537c7.805,17.238,15.641,39.438,15.641,39.438
			l26.902-24.551L195.227,73.445z"/>
		<path style="fill:#FFBA76;" d="M195.488,64.042c0,0,7.052,28.469,7.313,45.968c0.261,17.499-7.313,35.782-7.313,35.782
			s-25.335,1.828-32.387,2.089c-3.918-1.045-9.925-20.894-12.014-45.445c-2.09-24.551-1.828-33.431-1.828-33.431
			S179.294,51.244,195.488,64.042z"/>
		<path style="fill:#FFBA76;" d="M157.123,136.44c0,0-2.401,23.456-7.875,45.917c3.406,11.492,7.875,19.066,7.875,19.066
			l8.851-18.283c0,0-3.395-14.626,1.306-38.916C163.885,135.345,157.123,136.44,157.123,136.44z"/>
		<path style="fill:#FFBA76;" d="M150.6,96.467c0,0-4.215-10.485-9.438-9.963c-5.224,0.522-5.971,22.2,4.719,23.767
			c10.691,1.567,7.034-6.627,7.034-6.627L150.6,96.467z"/>
		<path style="fill:#FFBA76;" d="M200.189,98.478c0,0,1.567-11.19,6.791-13.28c5.224-2.09,4.44,24.551-5.485,21.678
			C198.622,101.652,200.189,98.478,200.189,98.478z"/>
		<g>
			<g>
				<path style="fill:#C48041;" d="M140.14,93.867c0.338-0.678,0.865-1.296,1.582-1.671c0.722-0.399,1.622-0.366,2.395-0.093
					c1.514,0.644,2.624,1.867,3.487,3.133c0.485,0.615,0.841,1.298,1.225,1.965c0.405,0.659,0.719,1.356,1.038,2.053
					c0.689,1.372,1.163,2.824,1.715,4.244l0.317,0.815l-0.835-0.272c-0.518-0.169-1.075-0.37-1.553-0.341
					c-0.128-0.009-0.201,0.045-0.312,0.053c-0.05,0.056-0.141,0.075-0.159,0.158c-0.085,0.134-0.068,0.396,0.014,0.641
					c0.159,0.499,0.456,1.001,0.821,1.436c0.37,0.432,0.797,0.833,1.318,1.106c-0.571-0.16-1.082-0.503-1.527-0.904
					c-0.44-0.408-0.855-0.866-1.107-1.463c-0.117-0.292-0.225-0.656-0.069-1.06c0.063-0.216,0.242-0.348,0.412-0.481
					c0.171-0.06,0.368-0.155,0.533-0.161c0.7-0.09,1.284,0.091,1.886,0.225l-0.518,0.543c-0.622-1.369-1.149-2.784-1.827-4.117
					c-0.329-0.672-0.629-1.36-1.006-2c-0.357-0.653-0.709-1.311-1.131-1.913c-0.785-1.238-1.725-2.427-2.96-3.094
					c-0.63-0.268-1.332-0.378-2.011-0.14C141.192,92.764,140.609,93.276,140.14,93.867z"/>
			</g>
			<g>
				<path style="fill:#C48041;" d="M201.295,93.652c0.729,2.171,1.13,4.398,1.424,6.64c0.131,1.123,0.235,2.251,0.266,3.386
					c0.034,1.132,0.021,2.28-0.178,3.412c-0.217-1.124-0.419-2.226-0.599-3.338c-0.188-1.109-0.333-2.223-0.481-3.338
					C201.468,98.18,201.245,95.94,201.295,93.652z"/>
			</g>
			<g>
				<path style="fill:#C48041;" d="M208.465,91.333c-0.223-0.456-0.642-0.981-1.052-0.824c-0.388,0.156-0.7,0.597-0.946,1.037
					c-0.516,0.884-0.874,1.89-1.252,2.872c-0.165,0.505-0.345,1.003-0.525,1.501l-0.49,1.519l-0.978,3.048l-0.354-0.54
					c0.475,0.084,0.948,0.216,1.41,0.463c0.228,0.119,0.462,0.295,0.639,0.549c0.186,0.271,0.199,0.645,0.101,0.917
					c-0.22,0.536-0.624,0.826-1,1.098c-0.384,0.269-0.792,0.484-1.211,0.672c0.349-0.3,0.7-0.589,1.012-0.907
					c0.31-0.311,0.582-0.689,0.666-1.018c0.066-0.315-0.161-0.49-0.53-0.655c-0.357-0.152-0.786-0.219-1.208-0.267l-0.475-0.054
					l0.121-0.487c0.52-2.092,1.12-4.169,1.969-6.175c0.444-0.995,0.899-1.993,1.593-2.887c0.334-0.428,0.741-0.923,1.404-1.034
					c0.333-0.035,0.659,0.16,0.801,0.406C208.329,90.799,208.413,91.069,208.465,91.333z"/>
			</g>
		</g>
		<path style="fill:#71A88E;" d="M157.094,197.245l-7.846-24.29L135.155,185.1l2.304,0.914l-11.968,6.529l32.773,75.743
			l33.306-60.072c0,0-18.468-13.581-21.118-18.544c2.574,0.261,2.574,0.261,2.574,0.261l-5.746-12.537L157.094,197.245z"/>
		<path style="fill:#FFFFFF;" d="M159.438,263.447l-32.34-71.78c0,0-36.54,16.98-62.316,54.236
			c-25.776,37.256-16.029,77.327-6.931,86.424c21.66-9.964,33.357-15.162,33.357-15.162s1.083,52.851-1.516,59.349
			c-9.314,0.65-12.13,4.765-6.065,10.83c-5.632,9.097-11.263,17.112-11.263,17.112l126.712-3.899c0,0,22.743-49.819,26.859-77.977
			c12.996,2.166,29.674,3.249,37.689,0.433c1.516-16.029-0.433-47.219-26.859-75.811c-26.426-28.592-50.326-42.883-50.326-42.883
			L159.438,263.447z"/>
		<g>
			<path style="fill:#8C9992;" d="M91.208,317.164c9.408-3.734,18.972-7.066,28.596-10.208c9.627-3.134,19.352-5.964,29.118-8.638
				c9.78-2.625,19.636-4.971,29.55-7.028c9.911-2.077,19.917-3.688,29.952-4.984c-4.977,0.924-9.987,1.626-14.936,2.681
				c-2.481,0.489-4.969,0.937-7.444,1.451l-7.412,1.605c-9.865,2.21-19.705,4.544-29.451,7.241c-9.773,2.59-19.48,5.43-29.146,8.404
				c-4.831,1.495-9.652,3.021-14.453,4.61C100.768,313.852,95.983,315.491,91.208,317.164z"/>
		</g>
		<g>
			<path style="fill:#8C9992;" d="M225.935,322.58c-7.206-0.909-14.37-2.116-21.512-3.435c-7.14-1.333-14.248-2.844-21.319-4.52
				c-1.77-0.411-3.525-0.879-5.285-1.332c-1.758-0.46-3.522-0.892-5.268-1.397l-5.25-1.467l-5.208-1.612
				c-6.912-2.24-13.77-4.709-20.311-7.877l5.061,2.004c1.685,0.668,3.418,1.213,5.123,1.826c1.698,0.631,3.43,1.169,5.158,1.715
				c1.729,0.543,3.446,1.119,5.196,1.597c6.941,2.089,13.968,3.886,21.018,5.572c7.036,1.753,14.135,3.247,21.233,4.74
				c3.548,0.755,7.107,1.46,10.669,2.146C218.796,321.259,222.365,321.916,225.935,322.58z"/>
		</g>
		<g>
			<g>
				<path style="fill:#8C9992;" d="M118.873,196.126c-0.887,5.37-1.872,10.719-2.879,16.065c-0.991,5.348-2.089,10.675-3.129,16.014
					l-0.391-0.583l8.516,1.674c2.836,0.571,5.679,1.105,8.51,1.706l8.496,1.78c2.825,0.63,5.656,1.226,8.475,1.887
					c-2.863-0.432-5.713-0.93-8.57-1.394l-8.549-1.501c-2.851-0.494-5.689-1.053-8.535-1.576l-8.529-1.607l-0.494-0.093l0.104-0.49
					c1.124-5.321,2.19-10.655,3.363-15.966C116.418,206.727,117.596,201.416,118.873,196.126z"/>
			</g>
			<g>
				<path style="fill:#8C9992;" d="M139.315,233.29c-0.716,2.341-1.494,4.66-2.239,6.99l-2.34,6.954
					c-0.767,2.323-1.607,4.619-2.407,6.93l-2.434,6.921l-0.216-0.596l6.075,3.631c2.022,1.215,4.058,2.407,6.06,3.655
					c4.025,2.463,8.04,4.942,12.002,7.512c-4.168-2.22-8.282-4.531-12.387-6.858c-2.062-1.147-4.092-2.349-6.134-3.53l-6.12-3.554
					l-0.357-0.208l0.142-0.389l2.51-6.893c0.848-2.294,1.655-4.602,2.537-6.884l2.604-6.86
					C137.513,237.84,138.383,235.554,139.315,233.29z"/>
			</g>
			<g>
				<path style="fill:#8C9992;" d="M191.57,208.214c0.964,5.936,1.785,11.889,2.615,17.842c0.75,5.962,1.581,11.914,2.257,17.886
					l0.061,0.539l-0.534-0.004c-4.608-0.036-9.217-0.024-13.825-0.128c-4.608-0.069-9.217-0.173-13.825-0.348
					c4.608-0.175,9.217-0.28,13.825-0.348c4.608-0.104,9.217-0.092,13.825-0.128l-0.473,0.535c-0.791-5.957-1.426-11.933-2.142-17.9
					C192.718,220.182,192.072,214.207,191.57,208.214z"/>
			</g>
			<g>
				<path style="fill:#8C9992;" d="M178.485,244c0.839,4.013,1.536,8.048,2.242,12.081c0.671,4.038,1.317,8.081,1.9,12.132
					l0.048,0.335l-0.29,0.163c-2.77,1.558-5.555,3.09-8.364,4.578c-2.799,1.506-5.616,2.982-8.468,4.394
					c2.678-1.72,5.392-3.377,8.123-5.003c2.721-1.644,5.467-3.245,8.228-4.819l-0.242,0.498c-0.637-4.044-1.21-8.097-1.759-12.154
					C179.388,252.143,178.866,248.082,178.485,244z"/>
			</g>
			<g>
				<path style="fill:#8C9992;" d="M159.438,263.447c1.38,2.217,2.482,4.555,3.516,6.921c1.006,2.378,1.942,4.786,2.598,7.315
					c-1.382-2.217-2.484-4.554-3.516-6.921C161.031,268.383,160.095,265.975,159.438,263.447z"/>
			</g>
		</g>
		<path style="fill:#FFBA76;" d="M112.382,271.275c0,0-0.842-19.918-11.464-22.103c-10.622-2.185-39.3,6.758-32.396,8.925
			c-6.373,2.433-7.966,4.026-5.842,6.681c-3.452,2.655-4.43,5.033-0.887,6.57c-1.237,2.6,1.396,5.267,10.712,3.521
			C98.099,270.073,112.382,271.275,112.382,271.275z"/>
		<g>
			<g>
				<path style="fill:#C48041;" d="M68.521,258.097c3.901-1.46,7.963-2.44,12.082-3.074c2.063-0.294,4.141-0.527,6.235-0.541
					c2.086-0.029,4.2,0.105,6.22,0.629c-2.079-0.138-4.133-0.006-6.181,0.15c-2.048,0.171-4.09,0.443-6.126,0.75
					c-2.04,0.289-4.071,0.651-6.107,1.003L68.521,258.097z"/>
			</g>
			<g>
				<path style="fill:#C48041;" d="M62.68,264.779c1.14-0.421,2.311-0.739,3.477-1.08c1.175-0.301,2.356-0.582,3.541-0.844
					c2.371-0.525,4.771-0.91,7.18-1.211c2.411-0.283,4.832-0.505,7.261-0.555c1.213-0.039,2.427-0.038,3.64-0.029
					c1.213,0.034,2.426,0.099,3.634,0.193c-2.419,0.22-4.827,0.357-7.227,0.603c-2.4,0.23-4.797,0.477-7.187,0.779
					c-2.394,0.274-4.776,0.63-7.164,0.973C67.449,263.964,65.069,264.362,62.68,264.779z"/>
			</g>
			<g>
				<path style="fill:#C48041;" d="M61.792,271.349c2.22-0.879,4.508-1.563,6.812-2.181c2.304-0.622,4.641-1.118,6.998-1.516
					c2.361-0.366,4.737-0.676,7.131-0.754c2.391-0.077,4.799-0.021,7.152,0.399c-1.197,0.034-2.377-0.008-3.562,0.099
					c-1.181,0.022-2.361,0.161-3.535,0.269c-2.35,0.257-4.69,0.588-7.023,0.972c-2.337,0.37-4.658,0.836-6.988,1.276
					c-1.166,0.219-2.327,0.462-3.488,0.714L61.792,271.349z"/>
			</g>
		</g>
		<g>
			<path style="fill:#8C9992;" d="M86.562,272.701c4.843-0.913,9.773-1.29,14.693-1.539c4.926-0.244,9.858-0.206,14.788-0.105
				c9.861,0.282,19.685,1.299,29.453,2.624l7.309,1.124c2.429,0.42,4.848,0.895,7.272,1.34c4.858,0.842,9.656,1.981,14.465,3.055
				c2.412,0.507,4.781,1.193,7.17,1.794l7.151,1.86c4.727,1.39,9.444,2.808,14.15,4.253l-14.275-3.779l-7.177-1.721
				c-2.396-0.556-4.772-1.196-7.189-1.657c-4.826-0.953-9.607-2.118-14.462-2.911c-2.421-0.429-4.836-0.888-7.261-1.292
				l-7.295-1.078c-9.729-1.404-19.519-2.403-29.341-2.848c-4.911-0.193-9.828-0.316-14.743-0.173
				C96.357,271.733,91.438,272.011,86.562,272.701z"/>
		</g>
		<path style="fill:#FFBA76;" d="M209.962,285.856c0,0-7.522-25.533,10.689-29.492c18.21-3.959,31.472-1.584,28.305,1.583
			c5.146,2.573,3.563,4.396,1.583,5.959c2.969,2.156-1.188,5.031-2.573,6.167c2.391,2.711-1.188,5.329-6.532,6.696
			S209.962,285.856,209.962,285.856z"/>
		<g>
			<path style="fill:#8C9992;" d="M161.404,308.219c-0.511,7.551-1.206,15.086-1.973,22.614c-0.769,7.528-1.693,15.04-2.64,22.549
				c-1.043,7.496-2.137,14.988-3.472,22.442c-1.387,7.435-2.85,14.903-5.335,22.062l0.735-2.741c0.25-0.911,0.515-1.817,0.696-2.746
				c0.385-1.851,0.847-3.682,1.169-5.545c0.344-1.858,0.722-3.708,1.046-5.569l0.931-5.591c1.175-7.466,2.275-14.945,3.24-22.444
				c1.029-7.491,1.937-14.997,2.869-22.503L161.404,308.219z"/>
		</g>
		<path style="fill:#8C9992;" d="M156.109,312.308c0,1.061-0.86,1.921-1.92,1.921c-1.061,0-1.921-0.86-1.921-1.921
			s0.86-1.92,1.921-1.92C155.25,310.388,156.109,311.248,156.109,312.308z"/>
		<path style="fill:#8C9992;" d="M153.656,342.833c0,1.061-0.86,1.92-1.92,1.92c-1.061,0-1.92-0.86-1.92-1.92
			c0-1.061,0.86-1.921,1.92-1.921C152.796,340.913,153.656,341.772,153.656,342.833z"/>
		<path style="fill:#8C9992;" d="M148.392,377.201c0,1.061-0.86,1.92-1.92,1.92c-1.061,0-1.921-0.86-1.921-1.92
			c0-1.061,0.86-1.921,1.921-1.921C147.532,375.281,148.392,376.14,148.392,377.201z"/>
		<g>
			<path style="fill:#8C9992;" d="M83.627,387.344c1.529,0.613,2.918,1.356,4.323,2.077l4.235,2.2
				c-1.663,0.003-3.252-0.579-4.696-1.314c-0.717-0.388-1.414-0.809-2.063-1.302C84.775,388.518,84.156,387.983,83.627,387.344z"/>
		</g>
		<g>
			<path style="fill:#71A88E;" d="M176.813,89.413c-16.167-2.695-25.867,1.257-25.867,1.257l-3.952,0.539v2.874l3.412-0.166
				c0,0,1.965,15.402,11.677,15.435C171.796,109.385,178.25,102.706,176.813,89.413z M163.928,107.093
				c-7.275,0.398-11.184-8.329-10.41-14.341c11.204-3.558,20.819-1.595,20.819-1.595C175.074,99.01,171.203,106.695,163.928,107.093
				z"/>
			<path style="fill:#71A88E;" d="M196.715,108.377c9.076-0.878,9.701-16.965,9.701-16.965l3.202-0.125l-0.226-2.97l-3.736-0.214
				c0,0-9.377-3.241-24.276,0.948C181.081,102.914,187.639,109.255,196.715,108.377z M183.831,90.64c0,0,8.833-2.864,19.585-0.161
				c1.197,6.145-1.772,15.502-8.603,15.723S183.76,98.818,183.831,90.64z"/>
			<path style="fill:#71A88E;" d="M176.813,89.413c0,0,1.415-1.75,4.567-0.361c0.516,1.759,0.454,2.13,0.454,2.13
				s-2.222-2.162-5.806,0.618C175.78,90.627,176.813,89.413,176.813,89.413z"/>
		</g>
		<g>
			<path style="fill:#C48041;" d="M180.124,93.867l0.266,13.218c0.047,2.202,0.109,4.403,0.204,6.6l0.157,3.289
				c0.044,0.543,0.061,1.096,0.126,1.631l0.085,0.806l0.14,0.749l-0.666-0.262c1.711-1.023,3.763-1.745,5.841-1.486
				c2.075,0.2,3.966,1.249,5.443,2.606c0.752,0.675,1.409,1.441,2.003,2.246c0.586,0.808,1.131,1.642,1.556,2.581
				c0.219,0.462,0.38,0.974,0.456,1.526c0.041,0.542,0.009,1.224-0.444,1.711c-0.412,0.476-0.971,0.717-1.487,0.836
				c-0.526,0.134-1.037,0.152-1.549,0.175c-4.022-0.124-7.818-1.362-11.356-3.052c-0.879-0.437-1.748-0.899-2.567-1.451
				c-0.41-0.273-0.809-0.568-1.19-0.889c-0.186-0.168-0.37-0.339-0.539-0.532c-0.158-0.203-0.341-0.397-0.387-0.724
				c-0.03-0.158,0.052-0.359,0.185-0.458c0.126-0.088,0.269-0.149,0.396-0.164c0.264-0.058,0.514-0.047,0.763-0.034
				c0.498,0.026,0.979,0.122,1.459,0.217c0.957,0.203,1.889,0.491,2.817,0.782c-0.945-0.233-1.895-0.446-2.85-0.602
				c-0.477-0.071-0.959-0.142-1.434-0.142c-0.234-0.002-0.478,0.004-0.687,0.062c-0.22,0.055-0.371,0.156-0.324,0.302
				c0.084,0.351,0.508,0.7,0.855,0.986c0.378,0.288,0.776,0.553,1.188,0.799c0.823,0.493,1.681,0.935,2.558,1.333
				c3.499,1.578,7.333,2.597,11.1,2.698c0.899-0.026,1.908-0.166,2.355-0.713c0.45-0.52,0.215-1.476-0.165-2.287
				c-0.811-1.654-1.993-3.23-3.373-4.475c-1.394-1.23-3.059-2.205-4.886-2.387c-1.82-0.25-3.663,0.368-5.271,1.303l-0.56,0.326
				l-0.106-0.587l-0.158-0.877l-0.081-0.838c-0.061-0.561-0.073-1.11-0.112-1.666c-0.051-1.107-0.097-2.211-0.104-3.315
				c-0.029-2.208-0.025-4.414-0.006-6.619C179.8,102.68,179.936,98.272,180.124,93.867z"/>
		</g>
		<g>
			<path style="fill:#C48041;" d="M181.37,133.607c-1.512,0.944-3.222,1.583-5.002,1.916c-1.779,0.335-3.663,0.31-5.446-0.207
				c-0.902-0.238-1.723-0.69-2.529-1.146c-0.728-0.577-1.488-1.115-2.034-1.864c-0.653-0.655-1.036-1.497-1.497-2.267
				c-0.381-0.814-0.656-1.675-0.939-2.51c0.493,0.751,0.852,1.556,1.362,2.263c0.544,0.681,0.992,1.427,1.647,1.985l0.455,0.447
				c0.142,0.159,0.3,0.3,0.481,0.411l1.029,0.734c0.747,0.384,1.484,0.789,2.307,0.988c1.609,0.485,3.338,0.56,5.052,0.396
				C177.97,134.563,179.696,134.199,181.37,133.607z"/>
		</g>
		<path style="fill:#393E3F;" d="M170.873,96.39c0,1.393-0.598,2.523-1.336,2.523c-0.738,0-1.336-1.129-1.336-2.523
			c0-1.393,0.598-2.523,1.336-2.523C170.274,93.867,170.873,94.996,170.873,96.39z"/>
		<path style="fill:#393E3F;" d="M189.724,95.372c0,1.393-0.598,2.523-1.336,2.523c-0.738,0-1.336-1.13-1.336-2.523
			c0-1.393,0.598-2.523,1.336-2.523C189.126,92.85,189.724,93.979,189.724,95.372z"/>
		<path style="fill:#393E3F;" d="M171.541,73.826c0,0-6.177,0.057-13.277,6.626c0.416,2.727,0.266,3.396,0.266,3.396
			s7.707-5.512,14.117-5.011C172.376,75.998,171.541,73.826,171.541,73.826z"/>
		<path style="fill:#393E3F;" d="M184.569,78.837c0,0,3.479,0.295,12.262,6.244c0.432-3.739,0.432-3.739,0.432-3.739
			s-8.154-6.18-11.426-6.347C185.571,76.833,184.569,78.837,184.569,78.837z"/>
		<g>
			<path style="fill:#C48041;" d="M167.28,147.674c-0.691,0.149-1.385,0.232-2.077,0.35c-0.694,0.093-1.387,0.18-2.082,0.249
				l-0.165,0.016l-0.135-0.135c-0.774-0.771-1.395-1.6-1.97-2.483c-0.579-0.874-1.068-1.801-1.52-2.741
				c-0.876-1.894-1.505-3.896-1.821-5.949l1.309,2.797c0.435,0.924,0.888,1.835,1.359,2.732c0.47,0.898,0.974,1.774,1.498,2.636
				c0.535,0.846,1.097,1.711,1.707,2.461l-0.3-0.118c0.698-0.001,1.397,0.018,2.097,0.041
				C165.879,147.581,166.578,147.595,167.28,147.674z"/>
		</g>
		<g>
			<path style="fill:#4B7761;" d="M137.459,186.014l8.295,4.649l0.186,0.104l-0.101,0.197l-3.979,7.761l-0.046-0.396
				c2.885,3.193,5.727,6.422,8.569,9.652c2.836,3.235,5.707,6.439,8.515,9.699l-0.783,0.066l5.884-9.511
				c1.949-3.178,3.955-6.321,5.941-9.476l0.005,0.344c-1.802-2.833-3.592-5.674-5.356-8.532l-0.123-0.199l0.225-0.026l5.76-0.676
				l-5.719,0.966l0.102-0.225c1.904,2.766,3.783,5.549,5.649,8.341l0.111,0.166l-0.106,0.178c-1.908,3.203-3.797,6.418-5.743,9.598
				l-5.8,9.563l-0.342,0.564l-0.441-0.498c-2.853-3.22-5.642-6.496-8.467-9.742c-2.819-3.25-5.637-6.501-8.413-9.789l-0.16-0.189
				l0.114-0.207l4.2-7.644l0.085,0.301L137.459,186.014z"/>
		</g>
		<g>
			<path style="fill:#4B7761;" d="M156.733,196.126c0.897,5.554,1.294,11.167,1.818,16.76c0.126,1.399,0.248,2.799,0.348,4.2
				c0.125,1.422,0.096,2.813,0.152,4.221l0.213,8.425c0.073,5.619,0.189,11.237,0.222,16.856l0.029,8.43
				c-0.027,2.81-0.019,5.62-0.077,8.43c-0.169-2.806-0.274-5.613-0.413-8.418l-0.308-8.419c-0.192-5.613-0.3-11.227-0.451-16.841
				l-0.123-8.424c-0.04-1.398,0.003-2.821-0.105-4.199l-0.251-4.205l-0.493-8.411C157.132,201.727,157.025,198.917,156.733,196.126z
				"/>
		</g>
		<g>
			<g>
				<path style="fill:#C48041;" d="M247.966,270.073c-2.207,0.426-4.421,0.763-6.633,1.101c-2.211,0.352-4.429,0.634-6.64,0.953
					l-6.638,0.906c-1.105,0.152-2.212,0.309-3.305,0.519c-1.109,0.16-2.188,0.398-3.262,0.738c2.006-1.052,4.251-1.514,6.432-2.014
					c2.197-0.487,4.417-0.819,6.637-1.139c2.224-0.295,4.451-0.552,6.687-0.723C243.48,270.234,245.718,270.088,247.966,270.073z"/>
			</g>
			<g>
				<path style="fill:#C48041;" d="M250.539,263.906c-1.21,0.156-2.422,0.258-3.632,0.395l-3.632,0.319
					c-2.42,0.218-4.843,0.381-7.263,0.563l-7.262,0.496c-1.212,0.07-2.42,0.172-3.63,0.27l-1.816,0.143
					c-0.603,0.066-1.207,0.129-1.817,0.178c2.353-0.659,4.772-1.029,7.185-1.357c2.415-0.333,4.842-0.548,7.269-0.727
					c2.429-0.158,4.859-0.295,7.293-0.331C245.668,263.807,248.103,263.789,250.539,263.906z"/>
			</g>
			<g>
				<path style="fill:#C48041;" d="M248.956,257.947c-2.304,0.1-4.596,0.198-6.887,0.326c-2.289,0.144-4.577,0.256-6.861,0.44
					c-2.285,0.157-4.568,0.353-6.852,0.55l-6.868,0.633c1.115-0.294,2.24-0.551,3.368-0.794c1.133-0.214,2.267-0.425,3.407-0.602
					c2.277-0.379,4.575-0.603,6.875-0.784c2.301-0.159,4.609-0.247,6.916-0.208C244.358,257.538,246.667,257.634,248.956,257.947z"
					/>
			</g>
		</g>
	</g>
	<g>
		<rect y="411.983" style="fill:#54876E;" width="500" height="88.017"/>
		<rect y="399.248" style="fill:#71A88E;" width="500" height="18.457"/>
	</g>
	<g>
		<rect x="241.352" y="25.061" style="fill:#54876E;" width="258.648" height="63.739"/>
		
			<text transform="matrix(1 0 0 1 252.2813 72.644)" style="fill:#FFFFFF; font-family:'BebasNeueBold'; font-size:40.8414px; letter-spacing:4;">PHARMACIST</text>
	</g>
</g>
<g id="DESIGNED_BY_FREEPIK">
	<g>
		<g id="XMLID_1_">
			<g id="XMLID_46_">
				<path id="XMLID_54_" style="fill:#FFFFFF;" d="M260.104,475.465c-0.433,0.443-0.804,0.932-1.108,1.453l-0.465-0.241
					c-0.067-0.297-0.35-0.502-0.659-0.466c-0.331,0.039-0.567,0.339-0.529,0.67c0.039,0.331,0.339,0.567,0.67,0.528
					c0.065-0.007,0.127-0.025,0.184-0.052l0.451,0.234c-0.251,0.554-0.433,1.139-0.539,1.743l0.747,0.132
					c0.229-1.306,0.85-2.507,1.792-3.473L260.104,475.465z"/>
				<path id="XMLID_53_" style="fill:#FFFFFF;" d="M265.591,473.163c-0.171,0-0.341,0.006-0.509,0.017l-0.074-0.626
					c0.188-0.149,0.296-0.389,0.266-0.645c-0.046-0.393-0.402-0.674-0.795-0.628c-0.394,0.046-0.675,0.402-0.628,0.796
					c0.03,0.254,0.189,0.461,0.404,0.564l0.073,0.624c-0.714,0.116-1.402,0.332-2.06,0.646l0.327,0.685
					c0.935-0.447,1.941-0.674,2.995-0.674c0.497,0,0.993,0.053,1.476,0.158l0.16-0.741
					C266.692,473.222,266.142,473.163,265.591,473.163z"/>
				<path id="XMLID_52_" style="fill:#FFFFFF;" d="M272.194,475.71c0.331-0.04,0.566-0.341,0.525-0.672
					c-0.04-0.331-0.341-0.566-0.672-0.525c-0.31,0.038-0.535,0.304-0.53,0.608l-0.416,0.363c-0.418-0.43-0.89-0.813-1.407-1.14
					l-0.404,0.642c1.135,0.715,2.021,1.727,2.564,2.925l0.69-0.313c-0.251-0.554-0.567-1.071-0.942-1.545l0.402-0.351
					C272.065,475.715,272.128,475.719,272.194,475.71z"/>
				<path id="XMLID_51_" style="fill:#FFFFFF;" d="M265.044,483.371c-0.386,0.023-0.775,0.035-1.157,0.035
					c-0.88,0-1.733-0.061-2.479-0.18c-0.391-0.062-0.846-0.154-1.271-0.292c1.047,1.861,3.069,3.125,5.389,3.125
					c2.855,0,5.263-1.916,5.949-4.503c-0.682,0.449-1.505,0.825-2.458,1.122C267.838,483.047,266.463,483.286,265.044,483.371z"/>
				<path id="XMLID_47_" style="fill:#FFFFFF;" d="M265.591,474.68c-3.352,0-6.079,2.666-6.079,5.943
					c0,0.425,0.046,0.849,0.137,1.261c0.674,0.483,2.706,0.891,5.348,0.731c2.88-0.174,5.297-0.958,6.672-2.159
					c-0.005-0.194-0.021-0.39-0.045-0.581C271.244,476.913,268.65,474.68,265.591,474.68z M263.432,481.194
					c-1.02,0-1.85-0.83-1.85-1.85c0-1.021,0.83-1.851,1.85-1.851s1.85,0.83,1.85,1.851
					C265.282,480.364,264.452,481.194,263.432,481.194z M268.169,480.286c-0.75,0-1.36-0.61-1.36-1.36s0.61-1.36,1.36-1.36
					s1.36,0.61,1.36,1.36S268.919,480.286,268.169,480.286z"/>
			</g>
			<path id="XMLID_44_" style="fill:#FFFFFF;" d="M281.595,476.547c-0.295-0.116-0.806-0.31-1.383-0.238
				c-0.551,0.069-0.844,0.341-0.844,1.007v0.866h2.229v1.717h-2.229v5.455h-1.932v-5.455h-1.339v-1.717h1.339v-0.889
				c0-1.68,0.895-2.782,2.568-2.782c0.642,0,1.157,0.121,1.59,0.308V476.547z"/>
			<path id="XMLID_42_" style="fill:#FFFFFF;" d="M286.297,479.878c-0.177-0.029-0.358-0.046-0.525-0.046
				c-0.896,0-1.51,0.548-1.51,1.613v3.908h-1.933v-7.172h1.873v0.784c0.451-0.673,1.14-0.977,2.02-0.977
				c0.414,0,0.848,0.128,1.095,0.337L286.297,479.878z"/>
			<path id="XMLID_9_" style="fill:#FFFFFF;" d="M293.965,481.757c0,0.222-0.016,0.488-0.037,0.651h-5.085
				c0.207,1.036,0.933,1.487,1.843,1.487c0.622,0,1.295-0.252,1.813-0.689l1.133,1.243c-0.814,0.748-1.851,1.089-3.057,1.089
				c-2.198,0-3.724-1.496-3.724-3.753c0-2.258,1.48-3.797,3.627-3.797C292.543,477.989,293.957,479.522,293.965,481.757z
				 M288.851,481.091h3.175c-0.178-0.918-0.732-1.436-1.562-1.436C289.554,479.654,289.021,480.202,288.851,481.091z"/>
			<path id="XMLID_7_" style="fill:#FFFFFF;" d="M301.619,481.757c0,0.222-0.016,0.488-0.037,0.651h-5.085
				c0.207,1.036,0.933,1.487,1.843,1.487c0.622,0,1.296-0.252,1.814-0.689l1.133,1.243c-0.814,0.748-1.851,1.089-3.058,1.089
				c-2.198,0-3.723-1.496-3.723-3.753c0-2.258,1.48-3.797,3.627-3.797C300.197,477.989,301.611,479.522,301.619,481.757z
				 M296.504,481.091h3.175c-0.178-0.918-0.733-1.436-1.561-1.436C297.207,479.654,296.674,480.202,296.504,481.091z"/>
			<path id="XMLID_28_" style="fill:#FFFFFF;" d="M309.964,481.764c0,2.154-1.495,3.775-3.472,3.775
				c-0.962,0-1.644-0.378-2.109-0.933v3.708h-1.925v-10.133h1.888v0.792c0.467-0.585,1.154-0.984,2.139-0.984
				C308.469,477.989,309.964,479.61,309.964,481.764z M304.287,481.764c0,1.133,0.748,1.977,1.844,1.977
				c1.14,0,1.85-0.881,1.85-1.977c0-1.095-0.71-1.976-1.85-1.976C305.035,479.788,304.287,480.632,304.287,481.764z"/>
			<path id="XMLID_4_" style="fill:#FFFFFF;" d="M313.068,475.835c0,0.696-0.541,1.23-1.236,1.23c-0.696,0-1.228-0.533-1.228-1.23
				c0-0.695,0.532-1.243,1.228-1.243C312.527,474.592,313.068,475.14,313.068,475.835z M312.808,485.353h-1.932v-7.172h1.932
				V485.353z"/>
			<path id="XMLID_2_" style="fill:#FFFFFF;" d="M316.032,480.735l2.702-2.554h2.368l-3.478,3.375l3.501,3.797h-2.376l-2.717-2.901
				v2.901H314.1v-10.658h1.932V480.735z"/>
		</g>
		<g>
			<path style="fill:#FFFFFF;" d="M184.412,485.289v-1.055c-0.527,0.718-1.391,1.23-2.387,1.23c-1.846,0-3.149-1.406-3.149-3.706
				c0-2.256,1.289-3.721,3.149-3.721c0.952,0,1.816,0.469,2.387,1.245v-3.765h1.099v9.771H184.412z M184.412,483.37v-3.208
				c-0.395-0.615-1.245-1.143-2.124-1.143c-1.42,0-2.27,1.172-2.27,2.739c0,1.567,0.85,2.725,2.27,2.725
				C183.167,484.483,184.017,483.985,184.412,483.37z"/>
			<path style="fill:#FFFFFF;" d="M186.932,481.744c0-2.051,1.465-3.706,3.486-3.706c2.139,0,3.398,1.67,3.398,3.794v0.278h-5.727
				c0.088,1.333,1.025,2.446,2.549,2.446c0.806,0,1.626-0.322,2.182-0.894l0.527,0.718c-0.703,0.703-1.655,1.084-2.812,1.084
				C188.44,485.465,186.932,483.956,186.932,481.744z M190.403,478.946c-1.509,0-2.256,1.274-2.314,2.358h4.643
				C192.718,480.25,192.015,478.946,190.403,478.946z"/>
			<path style="fill:#FFFFFF;" d="M194.607,484.352l0.571-0.791c0.469,0.542,1.362,1.011,2.329,1.011c1.085,0,1.67-0.513,1.67-1.216
				c0-1.714-4.38-0.659-4.38-3.281c0-1.099,0.952-2.036,2.636-2.036c1.202,0,2.051,0.454,2.622,1.025l-0.513,0.762
				c-0.424-0.513-1.201-0.894-2.109-0.894c-0.966,0-1.567,0.483-1.567,1.113c0,1.553,4.379,0.527,4.379,3.281
				c0,1.186-0.952,2.139-2.783,2.139C196.306,485.465,195.325,485.113,194.607,484.352z"/>
			<path style="fill:#FFFFFF;" d="M201.477,476.471c0-0.41,0.337-0.747,0.732-0.747c0.41,0,0.747,0.337,0.747,0.747
				c0,0.41-0.337,0.732-0.747,0.732C201.814,477.203,201.477,476.881,201.477,476.471z M201.667,485.289v-7.075h1.099v7.075H201.667
				z"/>
			<path style="fill:#FFFFFF;" d="M204.582,487.105l0.556-0.82c0.586,0.703,1.289,0.967,2.3,0.967c1.172,0,2.27-0.571,2.27-2.124
				v-1.011c-0.513,0.718-1.377,1.26-2.373,1.26c-1.846,0-3.149-1.377-3.149-3.662c0-2.271,1.289-3.677,3.149-3.677
				c0.952,0,1.802,0.469,2.373,1.245v-1.069h1.099v6.87c0,2.344-1.641,3.076-3.369,3.076
				C206.237,488.16,205.416,487.925,204.582,487.105z M209.708,483.253v-3.091c-0.381-0.615-1.23-1.143-2.109-1.143
				c-1.421,0-2.27,1.128-2.27,2.695c0,1.553,0.849,2.695,2.27,2.695C208.478,484.41,209.328,483.868,209.708,483.253z"/>
			<path style="fill:#FFFFFF;" d="M217.413,485.289v-4.629c0-1.245-0.63-1.641-1.582-1.641c-0.864,0-1.684,0.527-2.094,1.099v5.171
				h-1.099v-7.075h1.099v1.025c0.498-0.586,1.464-1.201,2.519-1.201c1.479,0,2.256,0.747,2.256,2.285v4.966H217.413z"/>
			<path style="fill:#FFFFFF;" d="M219.932,481.744c0-2.051,1.465-3.706,3.486-3.706c2.139,0,3.398,1.67,3.398,3.794v0.278h-5.727
				c0.088,1.333,1.025,2.446,2.548,2.446c0.806,0,1.626-0.322,2.183-0.894l0.527,0.718c-0.703,0.703-1.655,1.084-2.813,1.084
				C221.441,485.465,219.932,483.956,219.932,481.744z M223.404,478.946c-1.509,0-2.256,1.274-2.314,2.358h4.643
				C225.718,480.25,225.015,478.946,223.404,478.946z"/>
			<path style="fill:#FFFFFF;" d="M233.35,485.289v-1.055c-0.527,0.718-1.392,1.23-2.388,1.23c-1.845,0-3.149-1.406-3.149-3.706
				c0-2.256,1.289-3.721,3.149-3.721c0.952,0,1.817,0.469,2.388,1.245v-3.765h1.098v9.771H233.35z M233.35,483.37v-3.208
				c-0.396-0.615-1.245-1.143-2.124-1.143c-1.421,0-2.27,1.172-2.27,2.739c0,1.567,0.85,2.725,2.27,2.725
				C232.105,484.483,232.954,483.985,233.35,483.37z"/>
			<path style="fill:#FFFFFF;" d="M239.692,485.289v-9.771h1.099v3.765c0.571-0.776,1.421-1.245,2.388-1.245
				c1.845,0,3.149,1.465,3.149,3.721c0,2.3-1.304,3.706-3.149,3.706c-0.996,0-1.86-0.513-2.388-1.23v1.055H239.692z M242.9,484.483
				c1.436,0,2.285-1.157,2.285-2.725c0-1.567-0.85-2.739-2.285-2.739c-0.864,0-1.729,0.527-2.109,1.143v3.208
				C241.171,483.985,242.036,484.483,242.9,484.483z"/>
			<path style="fill:#FFFFFF;" d="M247.528,487.061c0.161,0.073,0.425,0.117,0.601,0.117c0.483,0,0.806-0.161,1.055-0.747
				l0.469-1.069l-2.959-7.148h1.187l2.358,5.801l2.344-5.801h1.2l-3.544,8.511c-0.425,1.024-1.143,1.421-2.08,1.436
				c-0.234,0-0.601-0.044-0.806-0.104L247.528,487.061z"/>
		</g>
	</g>
</g>
</svg>
